<svg xmlns="http://www.w3.org/2000/svg" xmlns:xlink="http://www.w3.org/1999/xlink" viewBox="0 36 500.51 217.08">
  <defs>
    <linearGradient id="linear-gradient" x1="0.5" x2="0.5" y2="1" gradientUnits="objectBoundingBox">
      <stop offset="0" stop-color="#6a1b9a"/>
      <stop offset="0.305" stop-color="#8e24aa"/>
      <stop offset="1" stop-color="#2979ff"/>
    </linearGradient>
    <filter id="Union_22" x="6.162" y="0" width="450.06" height="167.102" filterUnits="userSpaceOnUse">
      <feOffset dy="3" input="SourceAlpha"/>
      <feGaussianBlur stdDeviation="13" result="blur"/>
      <feFlood flood-color="#64b5f6" flood-opacity="0.161"/>
      <feComposite operator="in" in2="blur"/>
      <feComposite in="SourceGraphic"/>
    </filter>
  </defs>
  <g id="Group_766" data-name="Group 766" transform="translate(-34 -15.912)">
    <g id="Group_15" data-name="Group 15" transform="translate(34 114.463)">
      <path id="Path_20" data-name="Path 20" d="M63.287,119.711l-1.6-8.811c-5.607,6.008-17.222,10.814-31.239,11.214C12.423,122.514-.394,112.1.007,96.882c.4-24.831,22.028-26.834,45.658-29.237,22.028-2,16.02-16.02,1.2-14.819-2.8,0-9.612,2.4-8.811,8.411H5.614l.4-3.6C8.017,36.806,31.246,32,51.672,32c34.443.4,41.653,12.015,41.653,30.438V110.1a8.049,8.049,0,0,0,1.6,5.207,6.228,6.228,0,0,0,3.2,2.4v1.6H63.287ZM59.282,82.864a36.161,36.161,0,0,1-11.214,2.8c-5.207.4-13.217,2.8-12.816,10.013.4,9.212,13.217,7.61,16.821,5.607,8.411-3.6,9.612-14.018,8.01-19.224Z" transform="translate(0.002 32.4)" fill="#263238"/>
      <path id="Path_21" data-name="Path 21" d="M68.055,122.725c-22.829.8-40.451-7.61-43.255-28.836H58.042c.4,6.008,3.2,8.811,7.61,10.013,5.607,1.2,14.018-.4,14.418-6.408,0-4.005-4.806-6.809-9.212-8.01L52.435,85.478C38.818,82.274,26.8,73.063,27.2,59.446,28,39.42,50.432,31.01,70.057,31.41c28.436.4,39.65,12.015,41.252,27.635H80.07c-.4-5.607-4.406-8.01-8.811-8.811-4.806-.8-10.814,1.2-10.814,5.207-.4,6.008,5.607,6.809,10.814,8.01l19.625,4.406c12.416,2.8,22.829,10.013,24.03,22.829C116.916,114.315,92.485,121.924,68.055,122.725Z" transform="translate(74.534 30.587)" fill="#263238"/>
      <path id="Path_22" data-name="Path 22" d="M91.055,122.725c-22.829.8-40.451-7.61-43.255-28.836H80.641c.4,6.008,3.2,8.811,7.61,10.013,5.607,1.2,14.018-.4,14.418-6.408,0-4.005-4.806-6.809-9.212-8.01L75.034,85.478C61.417,82.274,49.4,73.063,49.8,59.446,50.6,39.42,73.032,31.01,92.657,31.41c28.436.4,39.65,12.015,41.252,27.635H102.669c-.4-5.607-4.406-8.01-8.811-8.811-4.806-.8-10.814,1.2-10.814,5.207-.4,6.008,5.607,6.809,10.814,8.01l19.625,4.406c12.416,2.8,22.829,10.013,24.03,22.829C139.916,114.315,115.485,121.924,91.055,122.725Z" transform="translate(143.651 30.587)" fill="#263238"/>
      <path id="Path_23" data-name="Path 23" d="M71.7,118.809V32.3h33.242v86.509Z" transform="translate(215.472 33.302)" fill="#263238"/>
      <path id="Path_24" data-name="Path 24" d="M124.455,122.425c-22.829.8-40.451-7.61-43.255-28.836h33.242c.4,6.008,3.2,8.811,7.61,10.013,5.607,1.2,14.018-.4,14.418-6.408,0-4.005-4.806-6.809-9.212-8.01l-18.824-3.6C94.817,82.374,82.8,73.163,83.2,59.546,84,39.52,106.432,31.11,126.057,31.51c28.436.4,39.65,12.015,41.252,27.635H136.069c-.4-5.607-4.406-8.01-8.811-8.811-4.806-.8-10.814,1.2-10.814,4.806-.4,6.008,5.607,6.809,10.814,8.01l19.625,4.406c12.416,2.8,22.829,10.013,24.03,22.829C173.316,114.014,148.885,121.624,124.455,122.425Z" transform="translate(244.02 30.888)" fill="#263238"/>
      <path id="Path_25" data-name="Path 25" d="M154.364,71.758V98.191c0,6.008,0,8.811,1.2,11.214,2,5.207,10.814,4.005,14.819,4.005v24.831H159.17c-5.607,0-30.438,1.6-38.048-6.809-2.4-3.2-5.207-7.209-5.207-17.622V72.159H103.9V52.133h12.015V25.7h38.849V52.133h16.02V71.758Z" transform="translate(312.234 13.468)" fill="#263238"/>
      <path id="Path_705" data-name="Path 705" d="M44.65,25.425V4.72H39.424L33.343,20.45,27.161,4.72H21.885V25.425H25.3V8.137h.1l6.784,17.288h2.161L41.132,8.137h.1V25.425ZM17.663,7.484V4.72H1.28V7.484H7.763V25.425H11.18V7.484Z" transform="translate(455.864 -4.72)" fill="#263238"/>
    </g>
    <g transform="matrix(1, 0, 0, 1, 34, 15.91)" filter="url(#Union_22)">
      <path id="Union_22-2" data-name="Union 22" d="M3.612,345.169l10.034.8-.8,14.449,14.449-2.007,1.2,9.633L2.007,372.06Zm18.462-4.816q4.817-5.419,9.633-12.041l9.633,7.224c-3.612,4.816-6.823,8.83-10.435,12.843Zm18.864-24.884a152.175,152.175,0,0,0,8.027-13.646L59.4,307.441c-2.809,4.816-5.619,9.633-8.428,14.047Zm14.85-27.292q3.01-7.225,6.02-14.449l11.238,4.014c-2.007,5.218-4.014,10.034-6.422,15.252Zm10.837-29.3c1.605-4.816,2.809-10.034,4.013-15.252l11.64,2.809c-1.2,5.218-2.81,10.837-4.415,16.054Zm7.224-30.5c.8-5.218,1.605-10.435,2.007-15.653l12.041,1.2c-.4,5.619-1.2,10.837-2.007,16.456Zm3.211-31.306V181.815l12.041-.4V197.87Zm-2.81-46.959L86.292,148.5c.8,5.218,1.2,10.837,2.007,16.456l-12.041.8C75.857,160.543,75.054,155.326,74.251,150.108ZM67.83,119.6l11.639-3.21c1.605,5.218,2.81,10.435,4.014,16.054l-11.639,2.408C70.639,129.639,69.435,124.421,67.83,119.6ZM57.8,89.9l11.238-4.816c2.007,5.218,4.014,10.034,6.02,15.252l-11.238,4.014ZM43.748,61.809l10.435-6.021c2.81,4.816,5.218,9.633,8.027,14.449L51.374,75.455C48.966,71.04,46.558,66.224,43.748,61.809ZM26.088,36.925l8.83-8.429A153.591,153.591,0,0,1,45.354,41.741l-9.633,6.823C29.7,40.939,26.088,36.925,26.088,36.925ZM0,14.85a14.85,14.85,0,0,1,29.7,0A14.57,14.57,0,0,1,14.85,29.7C6.422,29.3,0,22.877,0,14.85Zm6.823,0a7.621,7.621,0,0,0,7.626,7.626c4.415-.4,7.626-3.612,7.626-7.626a7.626,7.626,0,1,0-15.252,0Z" transform="translate(45.16 125.1) rotate(-90)" fill="url(#linear-gradient)"/>
    </g>
  </g>
</svg>