<?xml version="1.0" encoding="UTF-8"?>
<svg version="1.1" xmlns="http://www.w3.org/2000/svg" width="1125" height="408">
<path d="M0 0 C1.07791809 0.00323273 1.07791809 0.00323273 2.1776123 0.00653076 C50.83394893 0.2396134 94.70521245 20.94579856 128.8125 55.3125 C132.01551688 58.83889839 134.92858041 62.52292847 137.8125 66.3125 C138.65791201 67.36143713 139.50430875 68.40958118 140.3515625 69.45703125 C163.9378666 99.30408323 175.03232887 137.00006438 175.0625 174.625 C175.06317474 175.38127686 175.06384949 176.13755371 175.06454468 176.91674805 C175.03813115 195.58494147 172.2679948 212.45815339 166.8125 230.3125 C163.98137533 227.48137533 164.39283332 225.27649979 164.0625 221.3125 C161.37998129 196.11003572 147.90209705 175.36729024 130.8125 157.3125 C129.61753906 156.02085937 129.61753906 156.02085937 128.3984375 154.703125 C92.28731049 116.95554208 37.43799755 93.57193817 -12.12573242 80.89404297 C-14.1875 80.3125 -14.1875 80.3125 -16.1875 79.3125 C-16.12855057 79.87668137 -16.06960114 80.44086273 -16.00886536 81.0221405 C-14.42277425 96.58184556 -13.82035946 111.98933073 -13.875 127.625 C-13.87823273 129.29970367 -13.87823273 129.29970367 -13.88153076 131.00823975 C-14.0072656 171.65111847 -18.63222076 221.75722076 -49.1875 252.3125 C-59.99161866 251.26918382 -71.36446158 236.92683649 -78.1875 229.3125 C-85.1875 220.66873003 -85.1875 220.66873003 -85.1875 216.3125 C-83.74487305 214.90893555 -83.74487305 214.90893555 -81.69921875 213.44921875 C-80.93947754 212.89911133 -80.17973633 212.34900391 -79.39697266 211.78222656 C-78.56472168 211.1940918 -77.7324707 210.60595703 -76.875 210 C-75.12614532 208.73849855 -73.37745195 207.47677345 -71.62890625 206.21484375 C-70.72672363 205.5688623 -69.82454102 204.92288086 -68.89501953 204.25732422 C-64.67565937 201.22653765 -60.49317237 198.14633066 -56.3125 195.0625 C-55.52568848 194.48282471 -54.73887695 193.90314941 -53.92822266 193.3059082 C-37.99254997 183.16949197 -37.99254997 183.16949197 -28.1875 168.3125 C-28.07322155 165.48079481 -28.05755927 162.76601825 -28.15429688 159.94311523 C-28.19338528 158.24679124 -28.23197721 156.55045575 -28.2701416 154.85411072 C-28.30522575 153.51489217 -28.30522575 153.51489217 -28.34101868 152.1486187 C-28.45294398 147.38288184 -28.48889271 142.61635791 -28.53515625 137.84960938 C-28.59483588 131.79985291 -28.67756597 125.75414882 -28.86279297 119.70678711 C-29.9037825 84.34792819 -29.9037825 84.34792819 -23.359375 76.66455078 C-18.00613302 72.03539287 -12.67802709 69.3068822 -5.546875 69.31835938 C1.05091284 70.59953423 7.51546038 72.6315587 13.96875 74.49609375 C15.44014965 74.91641135 16.91171025 75.33616585 18.38342285 75.75538635 C22.24181596 76.85589293 26.09821661 77.96321964 29.9541626 79.07226562 C35.38162364 80.63199873 40.81170776 82.18257837 46.24157715 83.73390198 C49.12715271 84.55832072 52.01194044 85.3854115 54.89611816 86.21470642 C70.4461515 91.63592218 70.4461515 91.63592218 86.07128906 89.19384766 C88.28234927 87.76472333 90.3588765 86.24019905 92.4375 84.625 C93.13617188 84.10744141 93.83484375 83.58988281 94.5546875 83.05664062 C96.65585281 81.49438531 98.73439889 79.90525832 100.8125 78.3125 C102.3190142 77.17926157 103.82677731 76.04768105 105.3359375 74.91796875 C106.00286621 74.4180542 106.66979492 73.91813965 107.35693359 73.40307617 C107.83727051 73.04318604 108.31760742 72.6832959 108.8125 72.3125 C105.20331903 70.28601045 101.38300756 69.22866677 97.42041016 68.12939453 C96.31209839 67.81672638 96.31209839 67.81672638 95.18139648 67.4977417 C92.73917476 66.8097781 90.29539081 66.12754496 87.8515625 65.4453125 C86.14193743 64.96486929 84.43241547 64.48405901 82.72299194 64.00289917 C78.21500092 62.73503374 73.70567793 61.4719717 69.19604492 60.20996094 C64.65467297 58.93826425 60.11446879 57.66241401 55.57421875 56.38671875 C50.44600652 54.94593024 45.31770089 53.50548929 40.18838501 52.06863403 C39.40524618 51.8489691 38.62210735 51.62930416 37.81523705 51.40298271 C36.29018588 50.97602654 34.76466449 50.55074586 33.23864174 50.12727547 C29.74624939 49.15484007 26.26931094 48.15477618 22.8102417 47.0692749 C21.58815002 46.69304993 20.36605835 46.31682495 19.10693359 45.92919922 C18.05379974 45.59266327 17.00066589 45.25612732 15.9156189 44.90939331 C11.56807274 44.07313105 7.61497055 44.34225632 3.67944336 46.46069336 C3.09300049 46.93643799 2.50655762 47.41218262 1.90234375 47.90234375 C1.23025879 48.43400146 0.55817383 48.96565918 -0.13427734 49.51342773 C-1.18156006 50.37303101 -1.18156006 50.37303101 -2.25 51.25 C-3.76288449 52.44973279 -5.27722591 53.64763049 -6.79296875 54.84375 C-7.53853027 55.43671875 -8.2840918 56.0296875 -9.05224609 56.640625 C-11.98980329 58.94069265 -15.00943987 61.10694759 -18.0625 63.25 C-23.69402762 67.22723036 -29.26357841 71.28328779 -34.8125 75.375 C-35.5638623 75.92857178 -36.31522461 76.48214355 -37.08935547 77.05249023 C-38.58010612 78.15309731 -40.0580663 79.27127495 -41.52163696 80.40777588 C-44.1875 82.3125 -44.1875 82.3125 -47.24328613 83.90205383 C-53.35976526 87.43674416 -53.35976526 87.43674416 -56.85529709 93.351511 C-57.89991879 99.5464702 -57.55774332 105.8171652 -57.3671875 112.0703125 C-57.3519886 114.10330626 -57.34298419 116.13635488 -57.33987427 118.16940308 C-57.31912126 123.50448787 -57.23197286 128.83618192 -57.12530518 134.17016602 C-56.96110777 142.71226077 -56.87804757 151.25459162 -56.8333168 159.79806137 C-56.80512216 162.77442785 -56.73622129 165.74786304 -56.66305542 168.72341919 C-56.64231494 170.55404167 -56.62288694 172.38467964 -56.60498047 174.21533203 C-56.57390701 175.03629364 -56.54283356 175.85725525 -56.51081848 176.70309448 C-56.5059557 182.21640894 -57.86601702 184.95970735 -61.69206047 188.92674065 C-63.43857604 190.54516134 -65.17279535 192.03091583 -67.140625 193.375 C-67.83808838 193.8587207 -68.53555176 194.34244141 -69.25415039 194.84082031 C-70.33490845 195.56930176 -70.33490845 195.56930176 -71.4375 196.3125 C-72.55596313 197.08352051 -72.55596313 197.08352051 -73.69702148 197.87011719 C-75.17610852 198.88920414 -76.65772818 199.90462692 -78.14208984 200.91601562 C-80.86255083 202.77338455 -83.55632319 204.66652147 -86.25 206.5625 C-87.56223964 207.47953935 -88.87461554 208.39638406 -90.1875 209.3125 C-93.26138556 205.78119099 -94.68469298 201.7986061 -96.1875 197.4375 C-96.44877686 196.6851709 -96.71005371 195.9328418 -96.97924805 195.15771484 C-100.48961616 184.77666369 -102.65154335 174.26611402 -103.1875 163.3125 C-103.22875 162.55195313 -103.27 161.79140625 -103.3125 161.0078125 C-104.15307902 129.80131626 -91.61608779 101.38551882 -70.68945312 78.79150391 C-68.48730328 76.62300199 -66.02577864 74.89665331 -63.5 73.125 C-60.52481148 70.94002155 -59.37576903 69.96837676 -58.34765625 66.38671875 C-58.09352571 63.64698269 -58.01602496 61.05610071 -58.1875 58.3125 C-80.69153806 69.34656224 -99.92733006 84.73530039 -113.1875 106.3125 C-113.87199219 107.38628906 -114.55648437 108.46007812 -115.26171875 109.56640625 C-125.59892056 126.55879704 -132.46018383 147.34161017 -133.1875 167.3125 C-133.2390625 168.44042969 -133.290625 169.56835938 -133.34375 170.73046875 C-134.15958478 204.62160505 -122.32539902 237.36526129 -99.1875 262.23046875 C-95.98485168 265.56447569 -92.71721751 268.80632549 -89.375 272 C-87.1875 274.3125 -87.1875 274.3125 -87.1875 276.3125 C-106.95631046 280.09542052 -125.36424037 275.46943328 -141.953125 264.48046875 C-144.12829412 262.84169337 -146.16823843 261.13865132 -148.1875 259.3125 C-148.79722656 258.78269531 -149.40695313 258.25289063 -150.03515625 257.70703125 C-169.89383339 239.33229921 -174.07715482 206.71754345 -175.29248047 181.09960938 C-177.02706691 133.73785785 -159.22239222 89.11652207 -127.17724609 54.56396484 C-125.84970567 53.14458489 -124.51871775 51.72843161 -123.1875 50.3125 C-122.60484375 49.67570312 -122.0221875 49.03890625 -121.421875 48.3828125 C-100.82203824 26.63854036 -70.32907138 11.46617156 -41.5 4.5 C-40.69409424 4.30510986 -39.88818848 4.11021973 -39.05786133 3.90942383 C-26.10331998 0.97385464 -13.24024762 -0.07209616 0 0 Z " fill="#012F6D" transform="translate(203.1875,28.6875)"/>
<path d="M0 0 C0.84401367 0.61077393 0.84401367 0.61077393 1.70507812 1.23388672 C9.98331452 7.27949331 17.59643208 13.92007161 25 21 C25.92683594 21.87398437 26.85367187 22.74796875 27.80859375 23.6484375 C63.34717458 58.02760364 85.16669763 108.83017559 86.203125 158.16796875 C86.22926276 160.84167831 86.2476765 163.51381724 86.25 166.1875 C86.25067474 166.88975708 86.25134949 167.59201416 86.25204468 168.31555176 C86.20223223 201.17687092 78.70211484 233.05286051 63 262 C62.64679688 262.66483398 62.29359375 263.32966797 61.9296875 264.01464844 C47.88612081 290.39685241 28.1258775 313.32809031 4 331 C2.94167969 331.77988281 1.88335937 332.55976563 0.79296875 333.36328125 C-42.48953262 364.26410529 -96.43125101 376.77677723 -149 369 C-188.8643087 362.32145192 -225.08768406 345.39223233 -254.828125 317.984375 C-256.73861763 316.23881698 -258.69004214 314.58142549 -260.6875 312.9375 C-264.55018002 309.64074752 -267.73972715 305.88064865 -271 302 C-272.10988281 300.73929687 -272.10988281 300.73929687 -273.2421875 299.453125 C-290.68773585 279.27648441 -303.92068887 255.4000261 -312 230 C-312.23267578 229.28102539 -312.46535156 228.56205078 -312.70507812 227.82128906 C-314.36520179 222.59733866 -315.74537986 217.33483488 -317 212 C-317.19754883 211.19224121 -317.39509766 210.38448242 -317.59863281 209.55224609 C-324.08525319 181.93368158 -323.69586765 149.5223601 -317 122 C-316.78569336 121.07429199 -316.57138672 120.14858398 -316.35058594 119.19482422 C-306.84579681 78.74758838 -283.66811091 38.26035536 -251 12 C-249.98550781 11.17113281 -248.97101563 10.34226563 -247.92578125 9.48828125 C-227.8794924 -6.7087989 -206.39803513 -18.61818049 -182 -27 C-181.27635254 -27.25120605 -180.55270508 -27.50241211 -179.80712891 -27.76123047 C-120.61202614 -47.89343323 -50.38111194 -36.63689184 0 0 Z M-248.96484375 22.1171875 C-250.65909563 23.68461438 -252.37699061 25.13489207 -254.1875 26.5625 C-257.85874127 29.74424244 -260.86720732 33.29706306 -264 37 C-265.25683594 38.42505859 -265.25683594 38.42505859 -266.5390625 39.87890625 C-273.47043424 47.78933425 -279.42352843 56.08911872 -285 65 C-285.67675781 66.0621875 -286.35351562 67.124375 -287.05078125 68.21875 C-304.94072834 97.76046623 -313.22419244 132.04355963 -313.25 166.3125 C-313.25067474 167.11679443 -313.25134949 167.92108887 -313.25204468 168.74975586 C-313.23562254 181.07833033 -312.67670662 192.9258401 -310 205 C-309.83371094 205.79647949 -309.66742188 206.59295898 -309.49609375 207.41357422 C-298.95340193 257.16922257 -268.42906087 302.10155085 -226.05957031 330.29101562 C-195.69080688 349.91102044 -160.24767371 361.93252689 -124 363 C-123.02417969 363.03996094 -122.04835937 363.07992188 -121.04296875 363.12109375 C-73.99641876 364.14778354 -26.35744766 347.0014101 9 316 C9.83660156 315.27296875 10.67320312 314.5459375 11.53515625 313.796875 C14.05835238 311.56616683 16.5379285 309.2979334 19 307 C19.81210937 306.24203125 20.62421875 305.4840625 21.4609375 304.703125 C56.07058843 271.29443987 77.26999308 221.85619722 78.16796875 173.87109375 C78.55660648 119.66239808 60.35039993 69.63099924 22.34912109 30.39599609 C21.13250663 29.13711055 19.93421202 27.86058245 18.73828125 26.58203125 C-15.13306965 -8.79193041 -65.34630767 -27.45522362 -113.61328125 -29.125 C-163.4235329 -29.92596887 -212.43288853 -11.91424992 -248.96484375 22.1171875 Z " fill="#012F6D" transform="translate(321,37)"/>
<path d="M0 0 C49.81143757 13.87111112 107.31561162 46.76717006 133.8125 92.9375 C137.74459786 100.03277857 140.73108007 107.19224611 143 115 C143.24492187 115.83917969 143.48984375 116.67835938 143.7421875 117.54296875 C148.48692295 137.98432901 144.69614683 158.2811305 134 176 C127.33427681 186.15820004 119.42018257 195.27316435 111 204 C110.26394531 204.78761719 109.52789062 205.57523438 108.76953125 206.38671875 C104.49284156 210.85036755 99.93757799 214.77791761 95.0625 218.5625 C94.49418457 219.00480957 93.92586914 219.44711914 93.34033203 219.90283203 C89.25394514 223 89.25394514 223 87 223 C88.05694562 220.77212443 89.19064288 218.70027794 90.515625 216.6171875 C105.55213911 192.84323952 107.01270552 164.17672138 101.25390625 137.20703125 C93.17004926 102.42020408 74.04033529 71.49165892 50.1328125 45.35546875 C48.30504283 43.33688796 46.55653806 41.27771647 44.8125 39.1875 C32.65435787 25.29248042 17.69663784 13.90362855 2.3515625 3.77734375 C1.57554687 3.19082031 0.79953125 2.60429688 0 2 C0 1.34 0 0.68 0 0 Z " fill="#012F6D" transform="translate(217,123)"/>
<path d="M0 0 C4.38349402 1.50220863 7.9130495 3.85445872 11.625 6.5625 C12.54587402 7.2285022 12.54587402 7.2285022 13.48535156 7.90795898 C21.90763207 14.05421325 29.83328851 20.72586229 37.53125 27.75390625 C39.18337465 29.25702599 40.85030887 30.74402026 42.53125 32.21484375 C48.49361479 37.4503153 53.85925624 42.95779881 59 49 C59.48871582 49.57105469 59.97743164 50.14210937 60.48095703 50.73046875 C68.89442747 60.61830466 76.30803384 70.87585476 83 82 C83.43441406 82.71913574 83.86882812 83.43827148 84.31640625 84.17919922 C89.45024038 92.77837138 93.8601445 101.52789011 97.625 110.8125 C97.96813232 111.65466064 98.31126465 112.49682129 98.66479492 113.36450195 C101.79891302 121.4109438 101.79891302 121.4109438 101 125 C99.44559466 127.28137057 97.95070685 129.21105204 96.125 131.25 C95.62323242 131.82210205 95.12146484 132.3942041 94.60449219 132.98364258 C87.8829805 140.5257547 80.60413083 146.77795387 72.25 152.4375 C71.62383789 152.86313232 70.99767578 153.28876465 70.35253906 153.72729492 C66.68121993 156.13824492 63.27163022 157.80106084 59 159 C58.96036133 158.26700684 58.92072266 157.53401367 58.87988281 156.77880859 C55.760735 101.53887309 38.35897632 47.00237033 1.9375 4.375 C0 2 0 2 0 0 Z " fill="#012F6D" transform="translate(208,126)"/>
<path d="M0 0 C15.12728573 5.04242858 29.45661169 38.91747445 36.2734375 52.54589844 C52.95430815 86.62795005 62.0824138 123.02115277 61 161 C44.99856542 166.72273528 30.16307668 170.7240673 13 170 C13.16604736 169.40799805 13.33209473 168.81599609 13.50317383 168.20605469 C22.63962066 135.31104321 25.05446161 102.76568853 19 69 C18.80664062 67.92153809 18.61328125 66.84307617 18.4140625 65.73193359 C14.51870523 44.75531448 9.05130185 23.603053 0.72119141 3.91259766 C0 2 0 2 0 0 Z " fill="#012F6D" transform="translate(200,128)"/>
<path d="M0 0 C2.44537694 3.1343215 3.80840606 5.80846189 5.05078125 9.6015625 C5.41671387 10.71861572 5.78264648 11.83566895 6.15966797 12.98657227 C6.54010254 14.18725342 6.92053711 15.38793457 7.3125 16.625 C7.90635498 18.49079712 7.90635498 18.49079712 8.51220703 20.39428711 C14.30459259 38.85696606 18.59532889 57.79131067 21 77 C21.14139404 78.08607544 21.14139404 78.08607544 21.28564453 79.1940918 C24.38271941 105.84611092 24.24693619 139.50612762 12 164 C-4.78484825 164.8991883 -21.68771054 159.52842988 -36 151 C-34.11399329 147.77007235 -32.10731209 144.74798436 -29.875 141.75 C-8.83654378 111.77131185 -1.27440149 73.37012666 -0.68359375 37.3046875 C-0.66281265 36.23123077 -0.64203156 35.15777405 -0.62062073 34.05178833 C-0.55580872 30.65958375 -0.49656166 27.26730907 -0.4375 23.875 C-0.3942496 21.5598889 -0.35063336 19.24478461 -0.30664062 16.9296875 C-0.20019856 11.28653007 -0.0983119 5.64330462 0 0 Z " fill="#012F6D" transform="translate(195,134)"/>
<path d="M0 0 C0.99 0.495 0.99 0.495 2 1 C7.77978712 23.44127219 4.67248642 49.40718819 -6.99609375 69.32666016 C-7.32738281 69.8788623 -7.65867187 70.43106445 -8 71 C-8.556875 71.93199219 -9.11375 72.86398437 -9.6875 73.82421875 C-17.16708569 85.27733434 -27.03555282 93.55541668 -39 100 C-39.97066406 100.53238281 -40.94132812 101.06476563 -41.94140625 101.61328125 C-58.78471678 110.11179647 -79.1807426 114.67885097 -98 114 C-95.46798464 111.46798464 -92.89289529 110.53774191 -89.625 109.0625 C-72.7561524 100.98123636 -60.69523827 85.20497431 -54 68 C-53.43122613 65.93777332 -52.95637155 63.86727945 -52.48046875 61.78198242 C-49.96764849 51.15484674 -43.79360735 47.09640761 -34.92822266 41.31103516 C-30.56036048 38.34124282 -26.80971186 34.63717056 -23 31 C-22.3296875 30.39285156 -21.659375 29.78570312 -20.96875 29.16015625 C-12.28599971 21.01146402 -5.33157237 10.60702292 0 0 Z " fill="#012F6D" transform="translate(312,264)"/>
<path d="M0 0 C-1.78189846 12.47328923 -8.60026038 24.73505115 -17 34 C-17.96292969 35.11761719 -17.96292969 35.11761719 -18.9453125 36.2578125 C-29.84085666 48.1182757 -45.76416625 55.24634197 -61.82983398 56.16113281 C-87.8450774 56.53573489 -87.8450774 56.53573489 -100 53 C-100.69464355 52.80132324 -101.38928711 52.60264648 -102.10498047 52.39794922 C-113.37379199 49.11110994 -123.67118497 44.5443503 -134 39 C-134 38.67 -134 38.34 -134 38 C-133.42258057 38.02094727 -132.84516113 38.04189453 -132.25024414 38.06347656 C-109.57216559 38.77321934 -89.47695839 35.77443162 -72 20 C-71.46503906 19.35289062 -70.93007812 18.70578125 -70.37890625 18.0390625 C-67.14528537 14.37976866 -64.49743044 12.87130642 -59.6484375 12.4453125 C-56.17305209 12.26884144 -52.69780956 12.21055225 -49.21875 12.1484375 C-34.0505528 11.85460912 -17.36230932 7.82248976 -3.85083008 0.89868164 C-2 0 -2 0 0 0 Z " fill="#012F6D" transform="translate(256,320)"/>
<path d="M0 0 C3.45937264 1.28508385 6.40901407 2.80653482 9.5 4.8125 C24.75693707 14.09834414 43.11561389 17.84531733 60.6875 13.9375 C61.39261719 13.74027344 62.09773438 13.54304688 62.82421875 13.33984375 C68.06148827 12.52181422 71.73355292 14.16297725 75.9375 17.125 C91.37540769 27.27168933 109.69576604 33.5650331 128 36 C124.02066287 45.10956099 112.59929931 49.17054879 104 53 C97.77298754 55.3816807 91.64418699 56.60846755 85 57 C84.34 57.05285156 83.68 57.10570312 83 57.16015625 C61.65046208 58.09015506 41.73389232 48.20410056 26.3125 34.1875 C20.64822098 28.88650807 15.70310018 23.17335636 11 17 C10.17358731 15.93978428 9.34675163 14.87989815 8.51953125 13.8203125 C1.74951836 5.03788009 1.74951836 5.03788009 0 0 Z " fill="#012F6D" transform="translate(55,296)"/>
<path d="M0 0 C0 2.31 0 4.62 0 7 C0.88751953 6.38511719 0.88751953 6.38511719 1.79296875 5.7578125 C2.58316406 5.21898437 3.37335937 4.68015625 4.1875 4.125 C5.35345703 3.32449219 5.35345703 3.32449219 6.54296875 2.5078125 C11.59786677 -0.59423938 16.07229836 -1.72124126 22 -1 C27.16449941 0.63542481 30.05975183 2.41321286 33 7 C33 7.66 33 8.32 33 9 C35.953892 7.29927431 38.71619408 5.48150311 41.4375 3.4375 C46.88610521 -0.46107097 52.29643304 -1.82984194 59 -1 C64.17067543 0.63738055 67.14668058 2.35014613 70 7 C71.97482211 12.61319293 72.33459161 17.73086168 72.4140625 23.65234375 C72.43342865 24.55247696 72.4527948 25.45261017 72.4727478 26.38002014 C72.53214471 29.23241945 72.57876831 32.08486001 72.625 34.9375 C72.66321655 36.88087619 72.70227038 38.82423612 72.7421875 40.76757812 C72.83781312 45.51158533 72.92199019 50.25567175 73 55 C75.97 55.66 78.94 56.32 82 57 C82 58.65 82 60.3 82 62 C71.77 62 61.54 62 51 62 C51 60.35 51 58.7 51 57 C51.56589844 56.89042969 52.13179687 56.78085938 52.71484375 56.66796875 C53.44832031 56.50941406 54.18179688 56.35085937 54.9375 56.1875 C55.66839844 56.03667969 56.39929688 55.88585937 57.15234375 55.73046875 C57.76207031 55.48941406 58.37179687 55.24835938 59 55 C60.82354268 49.52937197 60.18469976 43.59869943 60.1875 37.875 C60.19974609 36.58078125 60.21199219 35.2865625 60.22460938 33.953125 C60.48409572 22.2010383 60.48409572 22.2010383 56.3125 11.5 C53.09935307 9.41579659 50.82724692 9.06486859 47 9 C43.29494281 10.14732362 43.29494281 10.14732362 40 12 C39.27973633 12.34458252 38.55947266 12.68916504 37.81738281 13.04418945 C34.83667265 16.25193652 35.50820534 19.83122659 35.609375 24.04296875 C35.61786469 25.36836418 35.61786469 25.36836418 35.62652588 26.72053528 C35.64892133 29.54340743 35.69912273 32.36501138 35.75 35.1875 C35.77006094 37.10089313 35.78831242 39.01430615 35.8046875 40.92773438 C35.84879643 45.61897842 35.91784515 50.30927418 36 55 C38.97 55.66 41.94 56.32 45 57 C45.495 58.98 45.495 58.98 46 61 C45 62 45 62 42.04077148 62.11352539 C40.74727783 62.10828857 39.45378418 62.10305176 38.12109375 62.09765625 C37.09110008 62.09553383 37.09110008 62.09553383 36.04029846 62.09336853 C33.83932199 62.08775479 31.63844591 62.07520007 29.4375 62.0625 C27.94856917 62.05748676 26.45963676 62.05292355 24.97070312 62.04882812 C21.31376925 62.03778093 17.65689442 62.02050713 14 62 C14 60.35 14 58.7 14 57 C14.84884766 56.81824219 14.84884766 56.81824219 15.71484375 56.6328125 C16.81505859 56.38144531 16.81505859 56.38144531 17.9375 56.125 C18.66839844 55.96257812 19.39929688 55.80015625 20.15234375 55.6328125 C22.20700294 55.17038477 22.20700294 55.17038477 23 53 C23.23659275 48.72125599 23.22849866 44.43832188 23.24023438 40.15380859 C23.24983805 38.03571746 23.28080887 35.91864027 23.3125 33.80078125 C23.37184428 26.31440315 23.39253799 18.85516598 20 12 C16.61863169 9.24772347 14.0975854 8.78687864 9.875 9.125 C6.25245935 9.94299305 4.70077577 10.6108522 2 13 C1.34 13 0.68 13 0 13 C-0.33 26.86 -0.66 40.72 -1 55 C2.3 55.66 5.6 56.32 9 57 C8.67 58.65 8.34 60.3 8 62 C-2.23 62 -12.46 62 -23 62 C-23 60.35 -23 58.7 -23 57 C-20.03 56.01 -17.06 55.02 -14 54 C-14 40.14 -14 26.28 -14 12 C-16.97 11.01 -19.94 10.02 -23 9 C-23 7.68 -23 6.36 -23 5 C-21.79601562 4.65066406 -20.59203125 4.30132812 -19.3515625 3.94140625 C-17.7760125 3.48187083 -16.20049325 3.02222994 -14.625 2.5625 C-13.8309375 2.33240234 -13.036875 2.10230469 -12.21875 1.86523438 C-11.45820312 1.64287109 -10.69765625 1.42050781 -9.9140625 1.19140625 C-8.8614624 0.88505249 -8.8614624 0.88505249 -7.78759766 0.57250977 C-3.09802713 -0.92940814 -3.09802713 -0.92940814 0 0 Z " fill="#012F6D" transform="translate(645,190)"/>
<path d="M0 0 C0.33 2.64 0.66 5.28 1 8 C1.50789062 7.59007812 2.01578125 7.18015625 2.5390625 6.7578125 C8.40170026 2.16870654 13.19853164 -0.54899137 20.9140625 -0.3125 C25.37884198 0.35638082 29.4052678 2.16337021 32.390625 5.6015625 C33.5 7.25 33.5 7.25 35 10 C36.10408203 9.16855469 36.10408203 9.16855469 37.23046875 8.3203125 C38.20628906 7.59585938 39.18210937 6.87140625 40.1875 6.125 C41.15042969 5.40570313 42.11335937 4.68640625 43.10546875 3.9453125 C48.29953144 0.45456592 52.75324232 -0.72476194 59 0 C63.51630076 0.97538982 66.28293168 2.18858058 69.375 5.6875 C72.60569337 12.27314418 73.29923919 18.59212471 73.37890625 25.8046875 C73.39590073 26.60987823 73.4128952 27.41506897 73.43040466 28.24465942 C73.4830473 30.78802901 73.52364593 33.33138547 73.5625 35.875 C73.60648314 38.43996209 73.65312294 41.00480189 73.70530701 43.5696106 C73.73718708 45.1587696 73.76410104 46.74803764 73.78553772 48.33737183 C73.77973646 52.29834536 73.77973646 52.29834536 75 56 C76.88764903 56.68472665 76.88764903 56.68472665 79.0625 57.125 C79.79597656 57.29257813 80.52945313 57.46015625 81.28515625 57.6328125 C81.85105469 57.75398438 82.41695312 57.87515625 83 58 C83 59.65 83 61.3 83 63 C72.77 63 62.54 63 52 63 C51.505 61.02 51.505 61.02 51 59 C54.44450737 56.70366176 56.93812283 56.45983515 61 56 C60.93093068 50.84002549 60.84287138 45.68084648 60.73754883 40.52148438 C60.7043878 38.76799373 60.67632858 37.01439862 60.65356445 35.26074219 C60.6198553 32.73327302 60.56753308 30.20675362 60.51171875 27.6796875 C60.50532883 26.90132538 60.4989389 26.12296326 60.49235535 25.3210144 C60.3384312 19.56414969 59.21482783 15.21482783 55 11 C49.1126375 9.5789125 45.94697951 9.97945553 40.6640625 12.89453125 C38.84278465 14.0254079 38.84278465 14.0254079 37 16 C36.8123745 18.76196056 36.74439839 21.42181505 36.76953125 24.18359375 C36.76998947 24.9949025 36.77044769 25.80621124 36.7709198 26.6421051 C36.77394322 28.35948141 36.78183222 30.07685494 36.79418945 31.79418945 C36.8124026 34.42343872 36.81469943 37.05233497 36.81445312 39.68164062 C36.81937006 41.34896138 36.82519914 43.01627974 36.83203125 44.68359375 C36.83314407 45.47116562 36.8342569 46.25873749 36.83540344 47.07017517 C36.86349352 50.302308 36.97074824 52.91224473 38 56 C39.87387216 56.80212628 39.87387216 56.80212628 42.0625 57.1875 C43.16271484 57.42533203 43.16271484 57.42533203 44.28515625 57.66796875 C44.85105469 57.77753906 45.41695312 57.88710937 46 58 C46 59.65 46 61.3 46 63 C35.77 63 25.54 63 15 63 C15 61.35 15 59.7 15 58 C17.97 57.34 20.94 56.68 24 56 C24.05907207 51.77089411 24.09395041 47.54189711 24.125 43.3125 C24.14175781 42.13365234 24.15851562 40.95480469 24.17578125 39.74023438 C24.22746959 30.30711237 23.42852468 21.14179734 21 12 C15.88309404 10.22474691 12.40017926 9.62540892 7 11 C2.77694406 13.28712189 2.77694406 13.28712189 0 17 C-0.08698228 19.91699274 -0.11551923 22.80982548 -0.09765625 25.7265625 C-0.09553383 27.02078629 -0.09553383 27.02078629 -0.09336853 28.34115601 C-0.08776188 31.1024723 -0.07520827 33.86370812 -0.0625 36.625 C-0.05748586 38.4947905 -0.0529228 40.36458226 -0.04882812 42.234375 C-0.03779029 46.82294777 -0.0205212 51.41146023 0 56 C2.97 56.66 5.94 57.32 9 58 C9 59.65 9 61.3 9 63 C-1.23 63 -11.46 63 -22 63 C-22 61.35 -22 59.7 -22 58 C-21.43410156 57.89042969 -20.86820313 57.78085938 -20.28515625 57.66796875 C-19.55167969 57.50941406 -18.81820312 57.35085937 -18.0625 57.1875 C-17.33160156 57.03667969 -16.60070312 56.88585937 -15.84765625 56.73046875 C-15.23792969 56.48941406 -14.62820313 56.24835938 -14 56 C-13.08964496 53.26893489 -12.87784287 51.70106761 -12.88647461 48.89575195 C-12.88655014 48.07512772 -12.88662567 47.25450348 -12.88670349 46.40901184 C-12.89186478 45.52767075 -12.89702606 44.64632965 -12.90234375 43.73828125 C-12.9037587 42.83248825 -12.90517365 41.92669525 -12.90663147 40.99345398 C-12.91222999 38.09976909 -12.92478219 35.20616151 -12.9375 32.3125 C-12.94251519 30.35091258 -12.94707807 28.38932394 -12.95117188 26.42773438 C-12.96219893 21.61845979 -12.97946253 16.809243 -13 12 C-17.455 11.01 -17.455 11.01 -22 10 C-22 8.68 -22 7.36 -22 6 C-20.79601562 5.65066406 -19.59203125 5.30132812 -18.3515625 4.94140625 C-16.7760125 4.48187083 -15.20049325 4.02222994 -13.625 3.5625 C-12.8309375 3.33240234 -12.036875 3.10230469 -11.21875 2.86523438 C-10.45820312 2.64287109 -9.69765625 2.42050781 -8.9140625 2.19140625 C-7.8614624 1.88505249 -7.8614624 1.88505249 -6.78759766 1.57250977 C-1.87761194 0 -1.87761194 0 0 0 Z " fill="#012F6D" transform="translate(755,189)"/>
<path d="M0 0 C6.77217762 2.72927686 14.65982769 1.11314214 21.75 0.4375 C21.95086443 4.15349191 21.9019437 5.20958445 19.75 8.4375 C17.5859375 8.73046875 17.5859375 8.73046875 15.125 8.625 C14.30773437 8.59792969 13.49046875 8.57085937 12.6484375 8.54296875 C12.02195312 8.50816406 11.39546875 8.47335937 10.75 8.4375 C11.245 9.5821875 11.245 9.5821875 11.75 10.75 C13.38292704 16.77141846 13.59395256 22.69465419 11.75 28.6875 C7.26869238 34.84929798 1.43785605 40.09659488 -6.25 41.4375 C-9.64986085 41.50614327 -12.99934881 41.44105364 -16.39453125 41.25 C-19.22880109 41.19879955 -19.22880109 41.19879955 -21.13671875 42.6875 C-22.60783575 44.65430918 -22.60783575 44.65430918 -22.25 48.4375 C-18.65041852 49.25718641 -15.29766485 49.57043001 -11.609375 49.61328125 C-10.53816406 49.63712891 -9.46695313 49.66097656 -8.36328125 49.68554688 C-6.13690824 49.72821256 -3.91028866 49.75962643 -1.68359375 49.77929688 C6.82485216 49.99837662 13.25224723 51.37696632 19.75 57.0625 C22.83841399 60.72999162 23.21666481 63.23243615 23.15625 67.9296875 C22.08020832 74.57217559 16.85066539 80.03058472 11.7265625 84.09375 C1.57114684 90.99782705 -9.65678484 94.14647096 -21.859375 91.97265625 C-27.74129447 90.46652839 -32.25478875 88.07966307 -36.25 83.4375 C-38.53119463 79.56333556 -39.30217749 75.845486 -38.25 71.4375 C-35.22977742 66.67810431 -31.34899303 62.90973904 -26.25 60.4375 C-26.73210938 60.05078125 -27.21421875 59.6640625 -27.7109375 59.265625 C-28.65839844 58.48445313 -28.65839844 58.48445313 -29.625 57.6875 C-30.56472656 56.92179687 -30.56472656 56.92179687 -31.5234375 56.140625 C-34.02826264 53.66980201 -35.21955252 51.59450443 -35.3125 48.0625 C-33.69054502 44.05531711 -30.578556 42.05883394 -27.25 39.4375 C-26.59 38.7775 -25.93 38.1175 -25.25 37.4375 C-25.81589844 36.82261719 -26.38179687 36.20773437 -26.96484375 35.57421875 C-27.69832031 34.76597656 -28.43179688 33.95773437 -29.1875 33.125 C-30.28384766 31.92423828 -30.28384766 31.92423828 -31.40234375 30.69921875 C-34.91889039 26.3946088 -34.64286898 21.86109229 -34.59765625 16.51953125 C-33.93783053 10.67006505 -30.98174852 7.12367619 -26.875 3.125 C-18.69219901 -2.13537207 -9.2950641 -3.92418076 0 0 Z M-20.25 8.4375 C-23.36357318 14.26980918 -24.00378586 20.07101707 -22.25 26.4375 C-19.82047163 31.20657421 -17.07324236 34.07316551 -12.25 36.4375 C-7.68723343 36.59759707 -5.89552693 35.99695667 -2.4375 33 C0.88784535 28.40838075 2.04400055 22.83350638 1.55859375 17.2265625 C0.44875289 12.00731087 -1.75881593 7.26436832 -6.125 4.0625 C-12.15922344 2.2877284 -16.31803955 3.47629108 -20.25 8.4375 Z M-25.22265625 66.30078125 C-26.77053206 69.52012751 -26.75608897 71.90418987 -25.9921875 75.359375 C-24.38703009 79.85381575 -22.2485048 81.84654818 -18.1875 84.25 C-11.7514032 86.64803178 -4.76462746 86.36255643 1.5625 83.8125 C6.53618991 81.28547263 10.61838954 78.16667816 12.8125 72.875 C12.724239 69.43282101 11.98582962 68.07984409 9.75 65.4375 C4.02631717 61.54193683 -1.44097101 60.69284603 -8.25 60.75 C-9.13196045 60.75652588 -10.0139209 60.76305176 -10.92260742 60.76977539 C-16.805351 60.98846678 -21.19422068 61.62779599 -25.22265625 66.30078125 Z " fill="#012F6D" transform="translate(784.25,315.5625)"/>
<path d="M0 0 C0.91185059 0.00459229 1.82370117 0.00918457 2.76318359 0.01391602 C11.18296032 0.12589297 19.77166882 0.56972294 27.8125 3.25 C28.34445312 6.1441856 28.86336335 9.03971515 29.375 11.9375 C29.52646484 12.75412109 29.67792969 13.57074219 29.83398438 14.41210938 C30.56853004 18.63147633 31.10143273 22.05883464 29.8125 26.25 C28.1625 26.25 26.5125 26.25 24.8125 26.25 C24.46638672 25.37988281 24.46638672 25.37988281 24.11328125 24.4921875 C21.24857721 17.63048533 18.41416336 12.19007017 11.4375 8.875 C3.13038484 5.93651299 -6.51691075 5.56450489 -14.625 9.25 C-24.72174634 15.27790826 -30.50853663 23.88422164 -33.74316406 35.19262695 C-36.58079365 48.33147558 -33.78944291 62.11398772 -27.375 73.6875 C-22.40599714 81.33307297 -16.12718844 86.08795579 -7.1875 88.25 C1.00886833 89.16277738 8.88229945 89.13703385 15.8125 84.25 C21.61058335 79.2373144 24.44021267 73.44053552 26.8125 66.25 C28.4625 66.58 30.1125 66.91 31.8125 67.25 C32.03290569 74.99425437 31.00011902 82.18287565 27.8125 89.25 C24.72907953 91.8700493 21.74261346 92.54101646 17.8125 93.25 C16.9875 93.46527344 16.1625 93.68054688 15.3125 93.90234375 C0.88308288 97.26774134 -16.09761249 96.61237735 -28.9609375 88.82421875 C-40.70540797 80.52067209 -47.3794859 71.44023167 -50.1875 57.25 C-51.96480792 41.62091542 -48.34143239 27.5123863 -38.48046875 15.1015625 C-28.16566405 3.76613502 -14.81642984 -0.15493768 0 0 Z " fill="#012F6D" transform="translate(518.1875,281.75)"/>
<path d="M0 0 C0.55969677 3.62245715 1.09467782 7.24813559 1.625 10.875 C1.78484375 11.90753906 1.9446875 12.94007813 2.109375 14.00390625 C2.32207031 15.48310547 2.32207031 15.48310547 2.5390625 16.9921875 C2.67521973 17.90339355 2.81137695 18.81459961 2.95166016 19.75341797 C2.9676123 20.49479004 2.98356445 21.23616211 3 22 C2.34 22.66 1.68 23.32 1 24 C-0.94921875 23.984375 -0.94921875 23.984375 -3 23 C-4.45703125 20.453125 -4.45703125 20.453125 -5.8125 17.25 C-9.10963983 10.27464387 -12.15927728 7.61310354 -19.125 4.6875 C-30.13493702 2.73412408 -38.64623365 3.5274081 -48 10 C-55.68850036 16.47519881 -59.85125435 25.27337522 -62 35 C-62.95475081 50.51078778 -61.47507835 63.73313193 -51 76 C-45.07865253 82.39379541 -37.0488431 85.51038658 -28.47265625 86.02734375 C-20.48943331 85.93906166 -13.92658204 83.43174121 -8 78 C-4.91131799 73.73145649 -2.75912205 68.95752579 -1 64 C0.65 64 2.3 64 4 64 C4.4032535 70.98972737 4.02633709 79.90609001 -0.2734375 85.72265625 C-2.50454346 87.37327084 -4.69550151 88.20561187 -7.3125 89.125 C-8.69888672 89.62386719 -8.69888672 89.62386719 -10.11328125 90.1328125 C-23.25256757 94.07993234 -40.57616311 93.90783852 -53 88 C-56.60197094 85.94173089 -59.81071637 83.64834506 -63 81 C-63.97066406 80.21496094 -63.97066406 80.21496094 -64.9609375 79.4140625 C-72.18393806 72.94805763 -77.18186237 62.5921713 -78.21899414 52.96777344 C-79.04183641 37.96765086 -76.50272633 25.06695407 -67 13 C-50.02108387 -5.80741479 -23.03192783 -6.0500363 0 0 Z " fill="#012F6D" transform="translate(546,160)"/>
<path d="M0 0 C0.50509639 3.08252089 1.00317999 6.16613525 1.5 9.25 C1.64308594 10.12269531 1.78617188 10.99539062 1.93359375 11.89453125 C2.06894531 12.73886719 2.20429687 13.58320312 2.34375 14.453125 C2.46943359 15.22817383 2.59511719 16.00322266 2.72460938 16.80175781 C3 19 3 19 3 23 C1.02 23.33 -0.96 23.66 -3 24 C-3.34611328 23.00419922 -3.34611328 23.00419922 -3.69921875 21.98828125 C-6.71394605 13.8258773 -10.1799944 9.59224033 -18.03515625 5.796875 C-26.18508641 2.49153553 -34.37825397 3.43864089 -42.39453125 6.68359375 C-51.76992086 11.42048475 -57.29474833 19.82499434 -60.875 29.5 C-64.26613013 42.39441696 -62.77667607 56.77168795 -56.6796875 68.55078125 C-51.34392957 77.22503254 -44.34864449 82.9273054 -34.5625 85.6875 C-26.5424451 86.66555548 -18.98599507 86.04857984 -11.94921875 81.74609375 C-7.47023211 78.22620489 -5.13179406 74.21700355 -3 69 C-2.5875 68.01 -2.175 67.02 -1.75 66 C-1.37875 65.01 -1.37875 65.01 -1 64 C0.65 64.33 2.3 64.66 4 65 C4.47982571 72.0374437 3.71832228 80.64991412 -0.83203125 86.2578125 C-3.05277484 88.04241005 -4.72536541 88.87432966 -7.4375 89.6875 C-8.54931641 90.03361328 -8.54931641 90.03361328 -9.68359375 90.38671875 C-16.0708196 92.0777718 -22.10778606 92.21792339 -28.6875 92.25 C-29.72583984 92.270625 -30.76417969 92.29125 -31.83398438 92.3125 C-43.26527115 92.36983561 -51.56473036 89.30708885 -61 83 C-62.3303125 82.13375 -62.3303125 82.13375 -63.6875 81.25 C-72.50434829 72.67144491 -77.99222117 61.21182773 -78.29248047 48.90795898 C-78.403292 35.92544219 -76.10768143 25.4423541 -68 15 C-67.236875 13.948125 -66.47375 12.89625 -65.6875 11.8125 C-48.52588251 -6.14733225 -22.50127381 -4.71063253 0 0 Z " fill="#012F6D" transform="translate(546,35)"/>
<path d="M0 0 C0.97608217 2.92824652 1.08226668 4.95613276 1 8 C1.74765625 7.50628906 2.4953125 7.01257813 3.265625 6.50390625 C4.25046875 5.86324219 5.2353125 5.22257813 6.25 4.5625 C7.22453125 3.92441406 8.1990625 3.28632813 9.203125 2.62890625 C13.92567109 -0.12151515 18.56953122 -0.6886464 24 0 C28.60352002 1.38439189 31.91863805 3.27273908 34.4375 7.4375 C36.92782227 13.11543478 37.17352732 18.33389264 37.28125 24.4765625 C37.30886414 25.68715836 37.30886414 25.68715836 37.33703613 26.92221069 C37.41540709 30.36142266 37.48353482 33.80081791 37.55224609 37.24023438 C37.60399792 39.75660775 37.66121708 42.27281574 37.71875 44.7890625 C37.73232544 45.56722321 37.74590088 46.34538391 37.7598877 47.14712524 C37.83358079 50.34038926 37.98331284 52.94993851 39 56 C40.87387216 56.80212628 40.87387216 56.80212628 43.0625 57.1875 C44.16271484 57.42533203 44.16271484 57.42533203 45.28515625 57.66796875 C45.85105469 57.77753906 46.41695312 57.88710937 47 58 C47 59.65 47 61.3 47 63 C36.77 63 26.54 63 16 63 C16 61.35 16 59.7 16 58 C18.97 57.34 21.94 56.68 25 56 C24.93093068 50.84002549 24.84287138 45.68084648 24.73754883 40.52148438 C24.7043878 38.76799373 24.67632858 37.01439862 24.65356445 35.26074219 C24.6198553 32.73327302 24.56753308 30.20675362 24.51171875 27.6796875 C24.50532883 26.90132538 24.4989389 26.12296326 24.49235535 25.3210144 C24.3384312 19.56414969 23.21482783 15.21482783 19 11 C13.1126375 9.5789125 9.94697951 9.97945553 4.6640625 12.89453125 C2.84278465 14.0254079 2.84278465 14.0254079 1 16 C0.75393985 19.00886724 0.62619218 21.93217752 0.5859375 24.9453125 C0.56657135 25.8303244 0.5472052 26.7153363 0.5272522 27.62716675 C0.46737277 30.45967916 0.42103787 33.29223203 0.375 36.125 C0.33682789 38.04298668 0.29777662 39.96095607 0.2578125 41.87890625 C0.16166445 46.58579748 0.07766458 51.29276896 0 56 C0.63808594 56.10957031 1.27617188 56.21914062 1.93359375 56.33203125 C2.75988281 56.49058594 3.58617187 56.64914063 4.4375 56.8125 C5.26121094 56.96332031 6.08492187 57.11414063 6.93359375 57.26953125 C7.61550781 57.51058594 8.29742188 57.75164062 9 58 C9.33 58.99 9.66 59.98 10 61 C9.67 61.66 9.34 62.32 9 63 C-1.23 63 -11.46 63 -22 63 C-22 61.35 -22 59.7 -22 58 C-21.43410156 57.87882812 -20.86820313 57.75765625 -20.28515625 57.6328125 C-19.18494141 57.38144531 -19.18494141 57.38144531 -18.0625 57.125 C-17.33160156 56.96257812 -16.60070312 56.80015625 -15.84765625 56.6328125 C-13.79299706 56.17038477 -13.79299706 56.17038477 -13 54 C-12.91097507 52.64154807 -12.88239868 51.27884026 -12.88647461 49.91748047 C-12.88655014 49.07675995 -12.88662567 48.23603943 -12.88670349 47.36984253 C-12.89186478 46.46146637 -12.89702606 45.55309021 -12.90234375 44.6171875 C-12.9037587 43.68778351 -12.90517365 42.75837952 -12.90663147 41.80081177 C-12.91223947 38.82550876 -12.92479332 35.85028036 -12.9375 32.875 C-12.94251397 30.86067817 -12.94707705 28.84635516 -12.95117188 26.83203125 C-12.9622115 21.88799198 -12.97948151 16.94400865 -13 12 C-17.455 11.01 -17.455 11.01 -22 10 C-22 8.68 -22 7.36 -22 6 C-20.79601562 5.65066406 -19.59203125 5.30132812 -18.3515625 4.94140625 C-16.7760125 4.48187083 -15.20049325 4.02222994 -13.625 3.5625 C-12.8309375 3.33240234 -12.036875 3.10230469 -11.21875 2.86523438 C-10.45820312 2.64287109 -9.69765625 2.42050781 -8.9140625 2.19140625 C-7.8614624 1.88505249 -7.8614624 1.88505249 -6.78759766 1.57250977 C-1.87761194 0 -1.87761194 0 0 0 Z " fill="#012F6D" transform="translate(930,189)"/>
<path d="M0 0 C0 2.97 0 5.94 0 9 C0.72445312 8.51789063 1.44890625 8.03578125 2.1953125 7.5390625 C3.16210938 6.90742187 4.12890625 6.27578125 5.125 5.625 C6.07632813 4.99851562 7.02765625 4.37203125 8.0078125 3.7265625 C14.4106398 0.03198069 19.86514104 -0.88531874 27 1 C31.4275244 3.23854312 34.09279425 6.33320719 35.65234375 11.03515625 C37.91790383 19.13595831 37.53860514 27.65329657 37.625 36 C37.66155351 38.55153095 37.70210306 41.10291066 37.74765015 43.65429688 C37.7747866 45.23233068 37.79617683 46.81047615 37.81118774 48.38867188 C37.78887647 52.32331868 37.78887647 52.32331868 39 56 C40.88764903 56.68472665 40.88764903 56.68472665 43.0625 57.125 C43.79597656 57.29257813 44.52945313 57.46015625 45.28515625 57.6328125 C45.85105469 57.75398438 46.41695312 57.87515625 47 58 C47 59.65 47 61.3 47 63 C36.77 63 26.54 63 16 63 C15.505 61.02 15.505 61.02 15 59 C17.97 58.01 20.94 57.02 24 56 C24.0745169 51.00125335 24.12877437 46.00283467 24.16479492 41.00366211 C24.17982126 39.30536258 24.20024823 37.60710145 24.22631836 35.90893555 C24.26297449 33.45872482 24.27978789 31.00903 24.29296875 28.55859375 C24.30845261 27.80726669 24.32393646 27.05593964 24.33988953 26.28184509 C24.34151008 21.13096918 23.46085302 17.5556555 21 13 C16.94974056 10.29982704 13.758329 10.3371482 9 11 C5.49238337 12.40040438 2.68091816 14.31908184 0 17 C-0.18748692 19.43977948 -0.25577335 21.76373985 -0.23046875 24.203125 C-0.23001053 24.91853455 -0.22955231 25.63394409 -0.2290802 26.37103271 C-0.22605649 27.88750868 -0.21816663 29.40398151 -0.20581055 30.92041016 C-0.18768077 33.22700178 -0.18530007 35.53318866 -0.18554688 37.83984375 C-0.18062639 39.3151076 -0.17479577 40.79036874 -0.16796875 42.265625 C-0.16685593 42.9502179 -0.1657431 43.63481079 -0.16459656 44.34014893 C-0.12572019 48.32400981 0.23944338 52.08986653 1 56 C3.64 56.66 6.28 57.32 9 58 C9 59.65 9 61.3 9 63 C-1.23 63 -11.46 63 -22 63 C-22 61.35 -22 59.7 -22 58 C-21.43410156 57.89042969 -20.86820313 57.78085938 -20.28515625 57.66796875 C-19.55167969 57.50941406 -18.81820312 57.35085937 -18.0625 57.1875 C-17.33160156 57.03667969 -16.60070312 56.88585937 -15.84765625 56.73046875 C-15.23792969 56.48941406 -14.62820313 56.24835938 -14 56 C-13.08964496 53.26893489 -12.87784287 51.70106761 -12.88647461 48.89575195 C-12.88655014 48.07512772 -12.88662567 47.25450348 -12.88670349 46.40901184 C-12.89186478 45.52767075 -12.89702606 44.64632965 -12.90234375 43.73828125 C-12.9037587 42.83248825 -12.90517365 41.92669525 -12.90663147 40.99345398 C-12.91222999 38.09976909 -12.92478219 35.20616151 -12.9375 32.3125 C-12.94251519 30.35091258 -12.94707807 28.38932394 -12.95117188 26.42773438 C-12.96219893 21.61845979 -12.97946253 16.809243 -13 12 C-15.97 11.67 -18.94 11.34 -22 11 C-22 9.35 -22 7.7 -22 6 C-20.96359375 5.73445313 -19.9271875 5.46890625 -18.859375 5.1953125 C-17.48952244 4.83877553 -16.11973412 4.4819917 -14.75 4.125 C-13.72712891 3.86396484 -13.72712891 3.86396484 -12.68359375 3.59765625 C-8.35767841 2.46367844 -4.40723146 0 0 0 Z " fill="#012F6D" transform="translate(867,64)"/>
<path d="M0 0 C-0.01571045 1.09876465 -0.0314209 2.1975293 -0.04760742 3.32958984 C-0.10235199 7.44832889 -0.13651028 11.5670365 -0.16479492 15.68603516 C-0.17978093 17.46082996 -0.20017682 19.23558837 -0.22631836 21.01025391 C-1.16752147 36.22055546 -1.16752147 36.22055546 4.47973633 49.68505859 C7.19301543 52.03189033 9.23971401 52.21144631 12.75 52.3125 C13.59046875 52.34988281 14.4309375 52.38726562 15.296875 52.42578125 C19.13504682 51.82121372 21.06646962 50.55050567 24 48 C24.57422435 44.93674905 24.75298247 42.67374872 24.65625 39.62109375 C24.65250366 38.8126149 24.64875732 38.00413605 24.64489746 37.17115784 C24.63147623 35.46558075 24.60368445 33.76006423 24.5625 32.05493164 C24.50012993 29.44294112 24.48055308 26.83336481 24.46875 24.22070312 C24.45041051 22.56247054 24.4296591 20.90426251 24.40625 19.24609375 C24.39775024 18.46479599 24.38925049 17.68349823 24.38049316 16.87852478 C24.28027648 13.08355303 24.15322895 11.22984342 22 8 C18.94570927 6.78715124 18.94570927 6.78715124 16 6 C16 4.68 16 3.36 16 2 C18.74928442 1.49576443 21.49931143 0.99646574 24.25 0.5 C25.02730469 0.35691406 25.80460938 0.21382812 26.60546875 0.06640625 C27.35957031 -0.06894531 28.11367188 -0.20429688 28.890625 -0.34375 C29.92751465 -0.53227539 29.92751465 -0.53227539 30.98535156 -0.72460938 C33 -1 33 -1 37 -1 C37.74354017 2.31590705 38.11988365 5.36277499 38.09765625 8.75854492 C38.09435303 9.67266647 38.0910498 10.58678802 38.08764648 11.52861023 C38.07934814 12.50272354 38.0710498 13.47683685 38.0625 14.48046875 C38.05871338 15.48966873 38.05492676 16.49886871 38.05102539 17.53865051 C38.03882884 20.75497744 38.02019042 23.97121391 38 27.1875 C37.97349201 31.43098703 37.9534676 35.67443048 37.9375 39.91796875 C37.92920166 40.89815475 37.92090332 41.87834076 37.91235352 42.88822937 C37.90905029 43.79289444 37.90574707 44.69755951 37.90234375 45.62963867 C37.89710693 46.42730148 37.89187012 47.22496429 37.88647461 48.04679871 C37.87579584 50.08039263 37.87579584 50.08039263 39 52 C41.3140622 52.73075648 43.64828869 53.40138258 46 54 C45.67 55.65 45.34 57.3 45 59 C42.60530271 59.50604924 40.20948283 60.00499517 37.8125 60.5 C37.13896484 60.64308594 36.46542969 60.78617188 35.77148438 60.93359375 C32.12490207 61.68069842 28.72351043 62.17352282 25 62 C24.505 58.535 24.505 58.535 24 55 C22.96875 55.78375 21.9375 56.5675 20.875 57.375 C14.26109867 62.02581109 7.96485226 62.77943508 0 62 C-4.71918995 60.09224236 -7.60024266 56.78707239 -9.87890625 52.25 C-13.8288667 42.78536046 -13.2334237 31.9522875 -13.5625 21.875 C-13.60568359 20.63234375 -13.64886719 19.3896875 -13.69335938 18.109375 C-13.79846455 15.07300329 -13.90061343 12.03656335 -14 9 C-16.64 8.01 -19.28 7.02 -22 6 C-22 4.68 -22 3.36 -22 2 C-19.08483516 1.46915208 -16.16839443 0.95000945 -13.25 0.4375 C-12.425 0.28603516 -11.6 0.13457031 -10.75 -0.02148438 C-9.95078125 -0.16005859 -9.1515625 -0.29863281 -8.328125 -0.44140625 C-7.5949707 -0.57232666 -6.86181641 -0.70324707 -6.10644531 -0.83813477 C-3.83766713 -1.01247412 -2.16221421 -0.66874807 0 0 Z " fill="#012F6D" transform="translate(856,190)"/>
<path d="M0 0 C5.62827893 4.23556705 9.47660667 10.7870255 10.875 17.64453125 C12.14635988 27.85072582 11.4633314 37.52798686 5.46875 46.15234375 C0.74432512 51.94357425 -4.58800118 55.95567943 -11.84375 57.90234375 C-22.43664149 58.91455338 -30.49432206 57.65427844 -39.59375 52.27734375 C-46.21065333 45.29283468 -49.78658687 37.38627616 -49.87109375 27.80078125 C-49.45542495 18.69870037 -47.60394927 9.47983493 -40.84375 2.90234375 C-28.39289641 -6.76281302 -13.79287482 -8.21143607 0 0 Z M-31.96875 5.83984375 C-37.04783492 14.13568245 -37.67635038 23.51645802 -35.84375 32.90234375 C-33.71349727 40.6797759 -31.30991874 47.09140212 -24.09375 51.27734375 C-19.54917893 53.3592143 -16.66269875 53.16633031 -11.84375 51.90234375 C-6.97843029 49.13795755 -4.78030139 45.00003049 -2.84375 39.90234375 C-0.42519431 29.89176555 -1.6934869 20.29186027 -5.84375 10.90234375 C-8.77173609 6.50017441 -11.86052834 2.89947305 -16.84375 0.90234375 C-23.61315252 0.36508958 -26.87030825 1.19126451 -31.96875 5.83984375 Z " fill="#012F6D" transform="translate(607.84375,194.09765625)"/>
<path d="M0 0 C6.7358976 4.22644555 10.21478409 10.44097324 12.6171875 17.921875 C14.49274604 28.10347851 13.24144847 38.62957989 7.375 47.25 C2.5521729 53.17655868 -3.66733595 56.98512744 -11 59 C-19.8032222 59.85049951 -28.08075756 59.53994108 -35.41015625 54.265625 C-43.16867052 47.7560423 -47.04836222 41.169741 -48 31 C-48.34634931 20.78910919 -45.98165768 12.03874114 -39.3984375 4.05859375 C-28.80178828 -5.96051298 -12.46578563 -7.14883764 0 0 Z M-29.75 6.4375 C-34.96673345 13.43345049 -35.59941723 22.73812041 -34.5703125 31.11328125 C-33.03770457 38.87079674 -30.02137383 45.70119103 -24 51 C-19.77397984 53.57011022 -15.82358793 53.65433019 -11 53 C-6.01029727 50.74051197 -4.0135315 47.87682002 -1.76171875 43.09765625 C1.61920489 33.7871127 0.94224033 23.00242941 -3 14 C-6.50877193 7.50675539 -9.64461832 3.32555095 -16.875 1.125 C-22.30734533 0.90770619 -25.74962528 2.89171332 -29.75 6.4375 Z " fill="#012F6D" transform="translate(606,318)"/>
<path d="M0 0 C7.30680466 5.97829472 11.56602468 12.77819743 12.75 22.25 C13.23172237 31.8844474 11.48071584 40.31961546 5.75 48.25 C-0.74312329 55.2887639 -7.70665872 58.69045393 -17.28125 59.30859375 C-26.10287428 59.13448274 -34.03560384 56.64472462 -40.25 50.25 C-47.50669944 41.35730358 -49.30924458 32.59715754 -48.25 21.25 C-46.21504113 12.35861722 -42.03747215 4.54341259 -34.375 -0.625 C-23.27903366 -6.87832448 -11.0423817 -5.94589784 0 0 Z M-29.25 5.25 C-34.60320048 11.79280059 -35.75285792 19.02234097 -35.55859375 27.25 C-34.57974974 36.76585062 -31.63646457 44.9572033 -24.25 51.25 C-20.41528452 53.77283913 -16.80300753 53.43141903 -12.39453125 52.7734375 C-8.34216257 51.78433476 -6.28305637 49.90289018 -4.09765625 46.40625 C0.52931758 37.31696332 0.85327215 26.88243385 -2.25 17.25 C-4.7753922 10.76562831 -7.43950172 6.16577058 -13.25 2.25 C-19.71965153 0.09344949 -24.04729009 0.85660052 -29.25 5.25 Z " fill="#012F6D" transform="translate(775.25,68.75)"/>
<path d="M0 0 C9.57 0 19.14 0 29 0 C29 1.65 29 3.3 29 5 C27.02 5.66 25.04 6.32 23 7 C25.45660053 14.63096841 28.28854073 22.08971911 31.1875 29.5625 C31.65091797 30.76197266 32.11433594 31.96144531 32.59179688 33.19726562 C33.72602525 36.1322277 34.86213485 39.0664464 36 42 C37.55869262 38.28724089 39.10650965 34.57014741 40.64477539 30.84887695 C41.16856218 29.58594908 41.69520519 28.32420159 42.22485352 27.0637207 C42.98960618 25.24229753 43.74294879 23.41609721 44.49609375 21.58984375 C44.95169678 20.49534912 45.4072998 19.40085449 45.87670898 18.27319336 C47.05561064 14.83795438 47.59926416 11.60263512 48 8 C45.36 7.01 42.72 6.02 40 5 C40.33 3.35 40.66 1.7 41 0 C49.25 0 57.5 0 66 0 C66 1.65 66 3.3 66 5 C65.20533073 5.29118713 65.20533073 5.29118713 64.39460754 5.58825684 C59.28078877 7.74614708 56.96658649 9.73849634 54.78268433 14.83657837 C54.48701569 15.60207001 54.19134705 16.36756165 53.88671875 17.15625 C53.38206589 18.36672501 53.38206589 18.36672501 52.86721802 19.60165405 C51.78131149 22.22460927 50.73447044 24.86129206 49.6875 27.5 C48.94394344 29.31490599 48.19807686 31.12886721 47.44995117 32.94189453 C44.10020532 41.10091933 40.86525479 49.30515015 37.6640625 57.5234375 C37.41491592 58.16214783 37.16576935 58.80085815 36.90907288 59.45892334 C35.77867639 62.36368771 34.66412482 65.27285273 33.57495117 68.19335938 C30.23717037 76.9910178 26.35113459 85.84094129 19 92 C15.07703567 93.30765478 12.13997567 93.1971417 8 93 C6 91 6 91 5.76953125 89.08984375 C5.88888889 83.11111111 5.88888889 83.11111111 7 82 C8.54112484 81.80809748 10.08291471 81.62152528 11.625 81.4375 C16.82324 80.41416602 19.29842701 78.59703558 22.4375 74.37890625 C22.953125 73.59386719 23.46875 72.80882812 24 72 C24.5775 71.20464844 25.155 70.40929687 25.75 69.58984375 C28.23015348 65.47898936 29.29037267 62.54493149 28.390625 57.7578125 C27.1365557 54.32756411 25.73749979 51.04386897 24.21582031 47.72705078 C22.76029136 44.46234025 21.41939927 41.15562496 20.0859375 37.83984375 C14.34785441 19.07588719 14.34785441 19.07588719 2.6875 5.4375 C1.800625 5.293125 0.91375 5.14875 0 5 C0 3.35 0 1.7 0 0 Z " fill="#012F6D" transform="translate(1059,190)"/>
<path d="M0 0 C4.96913074 2.51611541 7.34176575 5.58510395 9.671875 10.59375 C12.04952053 18.2783445 11.57946216 26.59490345 11.6875 34.5625 C11.72072269 36.25588502 11.75521682 37.9492456 11.79101562 39.64257812 C11.87535322 43.76158287 11.94242741 47.88053777 12 52 C15.28696233 52.79953138 16.71023192 53.09658936 20 52 C20.5 54.1875 20.5 54.1875 20 57 C16.56727742 60.23182533 12.95564235 61.80228089 8.375 62.75 C3.58390936 61.68531319 1.72556763 58.91363557 -1 55 C-1.70125 55.49371094 -2.4025 55.98742187 -3.125 56.49609375 C-13.09195005 63.22649344 -13.09195005 63.22649344 -20 63 C-24.36741054 62.07042271 -27.23945726 60.78055702 -30.375 57.5625 C-33.766414 52.21450101 -34.84932259 48.34234404 -34 42 C-31.2817457 35.73619662 -26.94494463 34.40977388 -21 32 C-17.66184717 30.70422484 -14.30493295 29.46739624 -10.9375 28.25 C-10.07189453 27.93417969 -9.20628906 27.61835937 -8.31445312 27.29296875 C-6.21064022 26.52583255 -4.10583776 25.76155621 -2 25 C-1.96774203 23.57046238 -1.94481629 22.14071233 -1.92578125 20.7109375 C-1.91200439 19.91478027 -1.89822754 19.11862305 -1.8840332 18.29833984 C-2.05499823 14.90999306 -3.08677486 12.77087779 -5 10 C-7.60096335 7.94660788 -9.36482815 7.10586197 -12.625 6.5625 C-15.06672701 6.79376951 -15.06672701 6.79376951 -16.625 8.5 C-18.17479215 11.31780392 -19.23677725 14.149672 -20.25390625 17.1953125 C-21 19 -21 19 -23 21 C-26.5 21.3125 -26.5 21.3125 -30 21 C-32.37358694 17.43961959 -32.73959381 16.19103161 -32 12 C-24.75479091 2.77458907 -11.28133388 -1.69934017 0 0 Z M-18.1875 37.125 C-21.13302543 40.17209527 -21.46421995 42.71689268 -21.41015625 46.95703125 C-21.09791602 49.39002457 -21.09791602 49.39002457 -18.375 52 C-13.84539995 54.68420744 -11.83932963 54.65839528 -6.84375 53.5 C-3.94844393 52.35818916 -2.77100103 51.60363584 -1 49 C0.04151814 43.08123414 -0.55473513 36.95541765 -1 31 C-6.82702339 31 -13.43178727 33.95452485 -18.1875 37.125 Z " fill="#012F6D" transform="translate(989,65)"/>
<path d="M0 0 C4.72518439 4.37943919 7.4190007 8.58046211 7.75195312 15.06445312 C7.78696163 16.59495758 7.81726011 18.12557441 7.84375 19.65625 C7.87136414 20.8710907 7.87136414 20.8710907 7.89953613 22.11047363 C7.97814956 25.57530625 8.04592131 29.04033247 8.11474609 32.50537109 C8.16652479 35.03492669 8.22375435 37.56431895 8.28125 40.09375 C8.29482544 40.87818481 8.30840088 41.66261963 8.3223877 42.4708252 C8.39579245 45.67993973 8.54082765 48.30998294 9.5625 51.375 C12.2025 51.045 14.8425 50.715 17.5625 50.375 C17.5 53.125 17.5 53.125 16.5625 56.375 C12.8203653 59.21902237 10.56634642 60.21923073 5.9375 60.9375 C1.66233801 60.224973 0.20398734 58.73689298 -2.4375 55.375 C-2.4375 54.715 -2.4375 54.055 -2.4375 53.375 C-3.17355469 53.78492188 -3.90960937 54.19484375 -4.66796875 54.6171875 C-5.64378906 55.15601563 -6.61960937 55.69484375 -7.625 56.25 C-8.58792969 56.78367188 -9.55085937 57.31734375 -10.54296875 57.8671875 C-16.16645621 60.79656154 -20.14047335 62.06987751 -26.4375 60.375 C-31.21431185 57.89473231 -34.12893024 55.25851295 -36.4375 50.375 C-37.07115707 45.5335752 -36.98847911 41.10140123 -35.5 36.4375 C-30.22000347 31.15750347 -21.35133595 29.16289056 -14.4375 26.6875 C-12.74909031 26.08195758 -11.06153825 25.47401658 -9.375 24.86328125 C-8.64152344 24.60071533 -7.90804687 24.33814941 -7.15234375 24.06762695 C-5.43690953 23.50468629 -5.43690953 23.50468629 -4.4375 22.375 C-4.02670197 17.13732506 -4.5819338 13.80605099 -7.4375 9.375 C-9.56435929 6.8232714 -9.56435929 6.8232714 -12.4375 5.375 C-16.17473433 5.51486273 -16.17473433 5.51486273 -19.4375 6.375 C-19.70304688 7.14585938 -19.96859375 7.91671875 -20.2421875 8.7109375 C-20.59539063 9.71382812 -20.94859375 10.71671875 -21.3125 11.75 C-21.66054688 12.74773437 -22.00859375 13.74546875 -22.3671875 14.7734375 C-23.4375 17.375 -23.4375 17.375 -25.4375 19.375 C-28.9375 19.625 -28.9375 19.625 -32.4375 19.375 C-34.4375 17.375 -34.4375 17.375 -35.1875 13.6875 C-35.11025286 10.64727345 -34.69858695 9.64421207 -32.5546875 7.43359375 C-23.19963154 0.64457979 -11.34614894 -5.36363404 0 0 Z M-12.875 31.625 C-14.00808594 32.04265625 -15.14117188 32.4603125 -16.30859375 32.890625 C-19.46126484 34.38627421 -21.25345201 35.67979184 -23.4375 38.375 C-24.75849751 42.83336659 -24.84688839 44.61269058 -22.625 48.75 C-20.7082913 51.4066122 -20.7082913 51.4066122 -18.4375 52.375 C-16.42425248 52.42759886 -16.42425248 52.42759886 -14.1875 52.1875 C-13.43984375 52.13207031 -12.6921875 52.07664062 -11.921875 52.01953125 C-8.27982763 51.07466047 -6.21456161 49.9491531 -3.4375 47.375 C-2.70111786 44.26235192 -2.86895115 41.30118628 -3.0625 38.125 C-3.08957031 37.28453125 -3.11664062 36.4440625 -3.14453125 35.578125 C-3.21505891 33.50931366 -3.32267633 31.44182607 -3.4375 29.375 C-7.04626632 29.375 -9.49937977 30.3529161 -12.875 31.625 Z " fill="#012F6D" transform="translate(594.4375,66.625)"/>
<path d="M0 0 C4.58669856 2.65990921 7.32094167 6.07737341 9.9375 10.6875 C10.92106471 14.53234386 11.30934273 18.44554821 10.625 22.375 C9.59912109 23.98706055 9.59912109 23.98706055 7.625 25.375 C4.89593638 25.63656261 2.4003901 25.72421131 -0.32421875 25.66796875 C-1.09683548 25.66372391 -1.86945221 25.65947906 -2.66548157 25.65510559 C-5.13150992 25.63832183 -7.59671896 25.60067147 -10.0625 25.5625 C-11.73501423 25.54745271 -13.40754128 25.53376438 -15.08007812 25.52148438 C-19.17870078 25.48841946 -23.27671151 25.43664028 -27.375 25.375 C-27.09784314 27.28262457 -26.80912546 29.18857155 -26.515625 31.09375 C-26.35610352 32.15529297 -26.19658203 33.21683594 -26.03222656 34.31054688 C-24.75023445 40.28809704 -22.01752415 44.09383116 -17.25 47.8125 C-11.96698973 50.68370123 -7.28476224 51.03164025 -1.375 50.375 C1.5011366 49.34115874 4.0095549 47.9396986 6.625 46.375 C7.95363884 45.69902585 9.2858194 45.02984162 10.625 44.375 C11.24609375 46.16015625 11.24609375 46.16015625 11.625 48.375 C7.87790751 55.02306731 2.86931408 58.96022864 -4.375 61.375 C-14.6363249 62.24195404 -22.02186473 60.94344083 -30.1875 54.625 C-35.26507247 49.99510213 -38.16973271 43.52804017 -38.61328125 36.71484375 C-38.90996064 25.15489595 -37.85098768 17.23749752 -30.25 8.0625 C-22.03042631 -0.46597924 -11.50386134 -5.12484048 0 0 Z M-22.375 8.375 C-25.09324911 11.99094249 -26.375 14.7456671 -26.375 19.375 C-22.56251574 19.40387236 -18.7500593 19.42175492 -14.9375 19.4375 C-13.84888672 19.44587891 -12.76027344 19.45425781 -11.63867188 19.46289062 C-10.08696289 19.46772461 -10.08696289 19.46772461 -8.50390625 19.47265625 C-7.54556885 19.47789307 -6.58723145 19.48312988 -5.59985352 19.48852539 C-3.40214661 19.6255313 -3.40214661 19.6255313 -2.375 18.375 C-2.73959363 13.63528284 -3.44696475 10.17060125 -6.375 6.375 C-12.0269876 2.2821814 -17.436734 4.18820926 -22.375 8.375 Z " fill="#012F6D" transform="translate(846.375,315.625)"/>
<path d="M0 0 C4.37468601 2.66611766 7.05403506 6.47232775 9.1953125 11.046875 C10.06572543 15.31189838 10.82434658 20.10130685 8.8203125 24.109375 C5.12490848 25.34117634 1.71727872 25.23349612 -2.12890625 25.20703125 C-2.90152298 25.2056163 -3.67413971 25.20420135 -4.47016907 25.20274353 C-6.93588139 25.19714966 -9.40150265 25.18459833 -11.8671875 25.171875 C-13.53971223 25.16685921 -15.21223838 25.16229644 -16.88476562 25.15820312 C-20.98310796 25.14718224 -25.08138229 25.12992184 -29.1796875 25.109375 C-28.58139051 27.52364168 -27.97182532 29.93408997 -27.35546875 32.34375 C-27.18825317 33.02356934 -27.0210376 33.70338867 -26.84875488 34.40380859 C-24.97780038 41.64139051 -22.25043923 45.27873455 -15.9296875 49.046875 C-9.54718813 50.85524982 -3.85665682 51.24345472 2.1953125 48.234375 C3.40981928 47.53667962 4.61834432 46.8284564 5.8203125 46.109375 C7.14895134 45.43340085 8.4811319 44.76421662 9.8203125 44.109375 C10.8203125 47.109375 10.8203125 47.109375 9.8828125 49.359375 C5.94266909 54.61289954 1.18596566 59.14781077 -5.1796875 61.109375 C-15.093595 62.0868025 -22.67398119 61.19201593 -30.4296875 54.859375 C-36.7490066 48.92417137 -39.3597128 42.73803189 -40.1796875 34.109375 C-40.3290245 22.49427487 -36.70695368 13.67116146 -28.66796875 5.31640625 C-20.33136788 -2.07791006 -10.44933771 -4.48433116 0 0 Z M-23.1796875 8.109375 C-26.59484221 13.29882713 -26.59484221 13.29882713 -28.1796875 19.109375 C-20.2596875 19.109375 -12.3396875 19.109375 -4.1796875 19.109375 C-3.07688326 13.59535382 -3.28090586 12.65079958 -6.1796875 8.109375 C-8.83097441 5.38643169 -10.35962197 4.24896062 -14.1171875 3.609375 C-18.22389276 4.27985749 -20.05510831 5.31719785 -23.1796875 8.109375 Z " fill="#012F6D" transform="translate(731.1796875,315.890625)"/>
<path d="M0 0 C0.78503906 0.06703125 1.57007813 0.1340625 2.37890625 0.203125 C4.4375 0.75 4.4375 0.75 6.4375 3.75 C5.87146226 10.31603774 5.87146226 10.31603774 4.4375 11.75 C-0.71447086 11.92765417 -5.48443071 11.59634488 -10.5625 10.75 C-15.04472535 16.0117428 -14.78666022 21.95317477 -15.125 28.5625 C-15.269375 31.264375 -15.41375 33.96625 -15.5625 36.75 C-9.9525 36.75 -4.3425 36.75 1.4375 36.75 C1.9325 38.73 1.9325 38.73 2.4375 40.75 C1.7775 41.74 1.1175 42.73 0.4375 43.75 C-2.3510289 43.97107787 -4.90903181 44.03107535 -7.6875 43.9375 C-8.81865234 43.91719727 -8.81865234 43.91719727 -9.97265625 43.89648438 C-11.83624127 43.86109985 -13.69945978 43.80729167 -15.5625 43.75 C-15.44421985 49.94316379 -15.3199689 56.13616814 -15.19018555 62.32910156 C-15.14687642 64.43583927 -15.10519847 66.54261117 -15.06518555 68.64941406 C-15.00738573 71.67783919 -14.94371904 74.70609285 -14.87890625 77.734375 C-14.86219376 78.67617615 -14.84548126 79.61797729 -14.82826233 80.58831787 C-14.80831711 81.46892883 -14.78837189 82.34953979 -14.76782227 83.25683594 C-14.75227798 84.02960876 -14.7367337 84.80238159 -14.72071838 85.59857178 C-14.59930101 88.08652879 -14.59930101 88.08652879 -13.5625 91.75 C-9.1075 92.74 -9.1075 92.74 -4.5625 93.75 C-4.5625 95.4 -4.5625 97.05 -4.5625 98.75 C-15.1225 98.75 -25.6825 98.75 -36.5625 98.75 C-36.5625 97.1 -36.5625 95.45 -36.5625 93.75 C-32.6025 92.76 -32.6025 92.76 -28.5625 91.75 C-27.77952631 88.61810523 -27.42039485 86.39962988 -27.35717773 83.25683594 C-27.3272599 81.93591949 -27.3272599 81.93591949 -27.29673767 80.58831787 C-27.28002518 79.64651672 -27.26331268 78.70471558 -27.24609375 77.734375 C-27.22531265 76.76340881 -27.20453156 75.79244263 -27.18312073 74.79205322 C-27.11781138 71.69477315 -27.05882677 68.59740932 -27 65.5 C-26.95679708 63.39842889 -26.91318222 61.2968662 -26.86914062 59.1953125 C-26.76214902 54.04696052 -26.6608291 48.89852442 -26.5625 43.75 C-29.5325 43.75 -32.5025 43.75 -35.5625 43.75 C-34.5625 39.75 -34.5625 39.75 -32.5625 36.75 C-29.4375 36.5625 -29.4375 36.5625 -26.5625 36.75 C-26.665625 35.533125 -26.76875 34.31625 -26.875 33.0625 C-26.82318104 22.07688054 -21.07124216 12.4059724 -13.5625 4.75 C-9.35739053 1.20488529 -5.53732332 -0.54734662 0 0 Z " fill="#012F6D" transform="translate(726.5625,28.25)"/>
<path d="M0 0 C-0.16265854 1.30867538 -0.32531708 2.61735077 -0.49290466 3.96568298 C-0.99587497 8.51287509 -1.13590291 12.97804108 -1.11352539 17.54907227 C-1.11367142 18.35017929 -1.11381744 19.15128632 -1.1139679 19.97666931 C-1.11327855 22.58994379 -1.10553262 25.20314443 -1.09765625 27.81640625 C-1.09578859 29.64200298 -1.09436633 31.46760022 -1.09336853 33.29319763 C-1.08957078 38.07216808 -1.07976422 42.8511076 -1.06866455 47.63006592 C-1.05839116 52.5170449 -1.05385827 57.40402893 -1.04882812 62.29101562 C-1.03813922 71.86069059 -1.02109614 81.43034271 -1 91 C1.97 91.33 4.94 91.66 8 92 C8 93.65 8 95.3 8 97 C-2.23 97 -12.46 97 -23 97 C-23.33 96.01 -23.66 95.02 -24 94 C-23.505 93.01 -23.505 93.01 -23 92 C-18.545 91.505 -18.545 91.505 -14 91 C-14.33 64.93 -14.66 38.86 -15 12 C-17.64 11.01 -20.28 10.02 -23 9 C-23 7.68 -23 6.36 -23 5 C-21.46279297 4.60167969 -21.46279297 4.60167969 -19.89453125 4.1953125 C-18.53381011 3.83870972 -17.17313547 3.48192949 -15.8125 3.125 C-15.13896484 2.95097656 -14.46542969 2.77695312 -13.77148438 2.59765625 C-10.82026894 1.82026292 -8.00915525 1.00390726 -5.19921875 -0.1953125 C-3 -1 -3 -1 0 0 Z " fill="#012F6D" transform="translate(681,279)"/>
<path d="M0 0 C-0.16265854 1.30867538 -0.32531708 2.61735077 -0.49290466 3.96568298 C-0.99587497 8.51287509 -1.13590291 12.97804108 -1.11352539 17.54907227 C-1.11367142 18.35017929 -1.11381744 19.15128632 -1.1139679 19.97666931 C-1.11327855 22.58994379 -1.10553262 25.20314443 -1.09765625 27.81640625 C-1.09578859 29.64200298 -1.09436633 31.46760022 -1.09336853 33.29319763 C-1.08957078 38.07216808 -1.07976422 42.8511076 -1.06866455 47.63006592 C-1.05839116 52.5170449 -1.05385827 57.40402893 -1.04882812 62.29101562 C-1.03813922 71.86069059 -1.02109614 81.43034271 -1 91 C1.97 91.33 4.94 91.66 8 92 C8 93.65 8 95.3 8 97 C-2.23 97 -12.46 97 -23 97 C-23 95.35 -23 93.7 -23 92 C-18.545 91.505 -18.545 91.505 -14 91 C-14 64.6 -14 38.2 -14 11 C-18.455 10.01 -18.455 10.01 -23 9 C-23 7.68 -23 6.36 -23 5 C-21.46279297 4.60167969 -21.46279297 4.60167969 -19.89453125 4.1953125 C-18.53381011 3.83870972 -17.17313547 3.48192949 -15.8125 3.125 C-15.13896484 2.95097656 -14.46542969 2.77695312 -13.77148438 2.59765625 C-10.82026894 1.82026292 -8.00915525 1.00390726 -5.19921875 -0.1953125 C-3 -1 -3 -1 0 0 Z " fill="#012F6D" transform="translate(644,279)"/>
<path d="M0 0 C0.33848652 1.89492006 0.67056911 3.79098466 1 5.6875 C1.185625 6.74324219 1.37125 7.79898437 1.5625 8.88671875 C1.95068074 11.64904062 2.08259976 14.21742043 2 17 C0.35 17 -1.3 17 -3 17 C-3.64834654 15.730447 -4.29357815 14.45930294 -4.9375 13.1875 C-5.29714844 12.47980469 -5.65679688 11.77210938 -6.02734375 11.04296875 C-7 9 -7 9 -8 6 C-12.17693876 4.16214695 -14.4113407 3.85758243 -18.875 4.9375 C-22.31619758 6.73410432 -22.31619758 6.73410432 -23.0625 10.4375 C-22.99992889 14.00405323 -22.94711171 15.14828115 -21 18 C-18.19690084 20.02063166 -18.19690084 20.02063166 -14.875 21.875 C0.92521618 31.23478033 0.92521618 31.23478033 4 37 C4.92457221 42.58265504 4.74564661 47.47657673 1.875 52.4375 C-1.86761262 57.56393577 -6.42024296 60.40227482 -12.6640625 61.75390625 C-20.21636065 62.5495497 -27.76717213 61.08639265 -35 59 C-35.33895656 57.27192682 -35.67091525 55.54248026 -36 53.8125 C-36.185625 52.84957031 -36.37125 51.88664062 -36.5625 50.89453125 C-36.96877612 48.2065794 -37.07933572 45.71228981 -37 43 C-34.6875 42.73046875 -34.6875 42.73046875 -32 43 C-30.375 44.86328125 -30.375 44.86328125 -29 47.3125 C-25.96626583 52.22418745 -25.96626583 52.22418745 -21 55 C-16.57941605 55.63151199 -14.74684866 55.5243831 -11.0625 52.9375 C-8.46672891 49.2404927 -8.28746412 47.43355658 -9 43 C-12.07270399 38.13034761 -15.914678 36.16127068 -20.875 33.625 C-33.04169789 27.00239548 -33.04169789 27.00239548 -35 22 C-35.93419027 16.33360003 -35.82115989 11.70314643 -33.3125 6.5 C-23.78307205 -3.80208427 -12.84315565 -3.36869656 0 0 Z " fill="#012F6D" transform="translate(902,316)"/>
<path d="M0 0 C-0.07064667 0.59583893 -0.14129333 1.19167786 -0.21408081 1.80557251 C-1.14008461 10.56652324 -1.14573232 19.2896367 -1.1328125 28.0859375 C-1.13348758 29.71733617 -1.1344593 31.34873473 -1.13571167 32.98013306 C-1.13717653 36.37722748 -1.13507169 39.7742954 -1.13037109 43.17138672 C-1.12464709 47.51896943 -1.12797729 51.86649076 -1.13394356 56.21407127 C-1.13755874 59.57354189 -1.13640664 62.93299797 -1.13381577 66.29246902 C-1.13315056 67.89600253 -1.13396066 69.49953737 -1.13629532 71.10306931 C-1.13884057 73.34007014 -1.13495609 75.57697141 -1.12939453 77.81396484 C-1.12859894 79.08428558 -1.12780334 80.35460632 -1.12698364 81.66342163 C-1.01607356 84.57765667 -0.67836014 87.17179499 0 90 C2.64 90.66 5.28 91.32 8 92 C8 93.65 8 95.3 8 97 C-2.23 97 -12.46 97 -23 97 C-23 95.35 -23 93.7 -23 92 C-22.15115234 91.83564453 -22.15115234 91.83564453 -21.28515625 91.66796875 C-20.55167969 91.50941406 -19.81820312 91.35085937 -19.0625 91.1875 C-18.33160156 91.03667969 -17.60070312 90.88585937 -16.84765625 90.73046875 C-15.93306641 90.36888672 -15.93306641 90.36888672 -15 90 C-13.82825973 86.4847792 -13.87290977 83.71643379 -13.87060547 80.00585938 C-13.86885315 79.29822952 -13.86710083 78.59059967 -13.86529541 77.86152649 C-13.86089389 75.52224272 -13.86380891 73.18303454 -13.8671875 70.84375 C-13.86651397 69.2185464 -13.86554354 67.5933429 -13.86428833 65.96813965 C-13.86281366 62.56192058 -13.86495852 59.15572774 -13.86962891 55.74951172 C-13.87532606 51.38132388 -13.87204582 47.01319749 -13.86605644 42.6450119 C-13.86244462 39.28903744 -13.86359229 35.93307756 -13.86618423 32.57710266 C-13.86685178 30.96633395 -13.86603108 29.35556392 -13.86370468 27.74479675 C-13.861168 25.4945423 -13.86503313 23.24438764 -13.87060547 20.99414062 C-13.87140106 19.71301392 -13.87219666 18.43188721 -13.87301636 17.11193848 C-13.85733836 13.96584211 -13.85733836 13.96584211 -15 11 C-16.87387216 10.19787372 -16.87387216 10.19787372 -19.0625 9.8125 C-19.79597656 9.65394531 -20.52945313 9.49539062 -21.28515625 9.33203125 C-21.85105469 9.22246094 -22.41695312 9.11289062 -23 9 C-23 7.35 -23 5.7 -23 4 C-21.87980469 3.72285156 -20.75960937 3.44570313 -19.60546875 3.16015625 C-18.13279698 2.79433333 -16.66014158 2.42844447 -15.1875 2.0625 C-14.08051758 1.78889648 -14.08051758 1.78889648 -12.95117188 1.50976562 C-3.06390381 -0.9508667 -3.06390381 -0.9508667 0 0 Z " fill="#012F6D" transform="translate(639,30)"/>
<path d="M0 0 C0 6.27 0 12.54 0 19 C6.27 19 12.54 19 19 19 C18 25 18 25 17 26 C14.13732433 26.07325168 11.299281 26.09238205 8.4375 26.0625 C7.63119141 26.05798828 6.82488281 26.05347656 5.99414062 26.04882812 C3.99606244 26.03700518 1.99802217 26.01906914 0 26 C0.069042 31.44478172 0.15708887 36.88880758 0.26245117 42.33300781 C0.29562296 44.18350819 0.32367887 46.03410786 0.34643555 47.88476562 C0.3801245 50.55121003 0.4324466 53.2167509 0.48828125 55.8828125 C0.49467117 56.70492218 0.5010611 57.52703186 0.50764465 58.37405396 C0.63147999 63.25608334 1.18897029 66.82657943 4 71 C8.74169686 72.40494722 11.59566821 72.07982335 16 70 C16.99 70 17.98 70 19 70 C18.66526889 72.93264416 18.37311975 74.59142944 16.35546875 76.80078125 C10.01600516 81.22127207 4.64616023 82.23079217 -3 81 C-6.51771506 79.58057112 -8.2423261 78.59859213 -9.88398743 75.13490295 C-11.91193801 69.27878566 -12.40248526 64.10295249 -12.29296875 57.93359375 C-12.28872391 57.01409439 -12.28447906 56.09459503 -12.28010559 55.14723206 C-12.26346776 52.24367541 -12.22584467 49.34084274 -12.1875 46.4375 C-12.17243386 44.45508823 -12.15874886 42.47266546 -12.14648438 40.49023438 C-12.11361326 35.65988222 -12.06193611 30.83006336 -12 26 C-14.64 26 -17.28 26 -20 26 C-19.25 21.25 -19.25 21.25 -17 19 C-14.375 18.875 -14.375 18.875 -12 19 C-12.08121094 18.43152344 -12.16242187 17.86304688 -12.24609375 17.27734375 C-12.54606655 13.61032937 -12.73220511 11.03335399 -10.546875 7.94921875 C-8.76314402 6.19921378 -6.92539141 4.59143701 -5 3 C-4.20529297 2.16082031 -4.20529297 2.16082031 -3.39453125 1.3046875 C-2 0 -2 0 0 0 Z " fill="#012F6D" transform="translate(1035,171)"/>
<path d="M0 0 C0.33 3.3 0.66 6.6 1 10 C1.45890625 9.44570312 1.9178125 8.89140625 2.390625 8.3203125 C3.00421875 7.59585938 3.6178125 6.87140625 4.25 6.125 C4.85328125 5.40570313 5.4565625 4.68640625 6.078125 3.9453125 C8.62375172 1.36864155 10.623005 0.1866701 14.21875 -0.30078125 C14.9715625 -0.30464844 15.724375 -0.30851562 16.5 -0.3125 C17.62921875 -0.33763672 17.62921875 -0.33763672 18.78125 -0.36328125 C21.6514171 0.10665808 22.97287267 0.91845315 25 3 C25.49609375 5.375 25.49609375 5.375 25.4375 8 C25.43621094 8.86625 25.43492187 9.7325 25.43359375 10.625 C24.92631779 13.40359262 24.26274641 14.34939755 22 16 C18.77238937 15.82553456 16.87597682 14.92875264 14.0625 13.3125 C11.06656333 11.71583935 11.06656333 11.71583935 7.875 12.4375 C3.41381941 14.86205467 1.57606998 18.27179007 0 23 C-0.09501003 25.09075854 -0.13072688 27.1844286 -0.1328125 29.27734375 C-0.13410156 30.51291016 -0.13539063 31.74847656 -0.13671875 33.02148438 C-0.13091797 34.95991211 -0.13091797 34.95991211 -0.125 36.9375 C-0.12886719 38.22591797 -0.13273438 39.51433594 -0.13671875 40.84179688 C-0.13542969 42.07865234 -0.13414062 43.31550781 -0.1328125 44.58984375 C-0.13168457 45.72284912 -0.13055664 46.85585449 -0.12939453 48.02319336 C-0.09060185 51.20476039 -0.09060185 51.20476039 1 55 C4.63 55.66 8.26 56.32 12 57 C12.495 58.98 12.495 58.98 13 61 C12 62 12 62 8.76538086 62.11352539 C7.33185874 62.11336631 5.89833088 62.10767407 4.46484375 62.09765625 C3.33496788 62.09553383 3.33496788 62.09553383 2.18226624 62.09336853 C-0.2326956 62.08775376 -2.64756601 62.07519883 -5.0625 62.0625 C-6.69596221 62.0574869 -8.32942586 62.05292366 -9.96289062 62.04882812 C-13.97529585 62.03777954 -17.98763241 62.02050506 -22 62 C-22 60.35 -22 58.7 -22 57 C-19.36 56.34 -16.72 55.68 -14 55 C-12.96123867 50.84495468 -12.85585358 47.08061861 -12.8671875 42.83984375 C-12.86623077 42.05356094 -12.86527405 41.26727814 -12.86428833 40.45716858 C-12.8636092 38.79883748 -12.86544487 37.14050369 -12.86962891 35.48217773 C-12.8749881 32.94313603 -12.86967124 30.40427064 -12.86328125 27.86523438 C-12.86394194 26.25260378 -12.86522291 24.63997329 -12.8671875 23.02734375 C-12.86516327 22.26791977 -12.86313904 21.50849579 -12.86105347 20.72605896 C-12.87519888 17.55063863 -12.98833486 15.03499543 -14 12 C-15.87387216 11.19787372 -15.87387216 11.19787372 -18.0625 10.8125 C-18.79597656 10.65394531 -19.52945313 10.49539062 -20.28515625 10.33203125 C-20.85105469 10.22246094 -21.41695312 10.11289063 -22 10 C-22 8.35 -22 6.7 -22 5 C-21.04738281 4.73445313 -20.09476563 4.46890625 -19.11328125 4.1953125 C-17.85902344 3.84210938 -16.60476563 3.48890625 -15.3125 3.125 C-14.07113281 2.77695313 -12.82976563 2.42890625 -11.55078125 2.0703125 C-8.08614659 1.09983488 -8.08614659 1.09983488 -5.23046875 -0.1953125 C-3 -1 -3 -1 0 0 Z " fill="#012F6D" transform="translate(814,65)"/>
<path d="M0 0 C-0.00333092 0.98932022 -0.00333092 0.98932022 -0.00672913 1.99862671 C-0.02879894 8.84380554 -0.04391373 15.68897432 -0.05493164 22.53417969 C-0.05997017 25.09115001 -0.06680107 27.64811743 -0.07543945 30.20507812 C-0.08752602 33.87370517 -0.09323301 37.54229423 -0.09765625 41.2109375 C-0.10281754 42.35992523 -0.10797882 43.50891296 -0.11329651 44.69271851 C-0.11337204 45.7536673 -0.11344757 46.81461609 -0.11352539 47.90771484 C-0.11685631 49.31336197 -0.11685631 49.31336197 -0.12025452 50.74740601 C-0.14827043 53.03587302 -0.14827043 53.03587302 1 55 C2.88764903 55.68472665 2.88764903 55.68472665 5.0625 56.125 C5.79597656 56.29257813 6.52945313 56.46015625 7.28515625 56.6328125 C8.13400391 56.81457031 8.13400391 56.81457031 9 57 C9 58.65 9 60.3 9 62 C-1.23 62 -11.46 62 -22 62 C-22.33 60.68 -22.66 59.36 -23 58 C-20.03 57.01 -17.06 56.02 -14 55 C-14 40.81 -14 26.62 -14 12 C-16.97 11.01 -19.94 10.02 -23 9 C-23 7.68 -23 6.36 -23 5 C-21.46279297 4.60167969 -21.46279297 4.60167969 -19.89453125 4.1953125 C-18.53381011 3.83870972 -17.17313547 3.48192949 -15.8125 3.125 C-15.13896484 2.95097656 -14.46542969 2.77695313 -13.77148438 2.59765625 C-10.82026894 1.82026292 -8.00915525 1.00390726 -5.19921875 -0.1953125 C-3 -1 -3 -1 0 0 Z " fill="#012F6D" transform="translate(942,65)"/>
<path d="M0 0 C-0.00333092 0.96719719 -0.00333092 0.96719719 -0.00672913 1.95393372 C-0.02881948 8.65328417 -0.04392234 15.35262431 -0.05493164 22.05200195 C-0.05996641 24.55363383 -0.06679461 27.05526276 -0.07543945 29.55688477 C-0.08754238 33.14860766 -0.09323682 36.74029172 -0.09765625 40.33203125 C-0.10281754 41.45398392 -0.10797882 42.57593658 -0.11329651 43.73188782 C-0.11337204 44.77274033 -0.11344757 45.81359283 -0.11352539 46.88598633 C-0.11685631 48.2616552 -0.11685631 48.2616552 -0.12025452 49.66511536 C-0.09611358 52.15668165 -0.09611358 52.15668165 1 55 C2.87387216 55.80212628 2.87387216 55.80212628 5.0625 56.1875 C6.16271484 56.42533203 6.16271484 56.42533203 7.28515625 56.66796875 C7.85105469 56.77753906 8.41695312 56.88710937 9 57 C9 58.65 9 60.3 9 62 C-1.23 62 -11.46 62 -22 62 C-22 60.35 -22 58.7 -22 57 C-19.03 56.34 -16.06 55.68 -13 55 C-13 40.48 -13 25.96 -13 11 C-16.3 10.34 -19.6 9.68 -23 9 C-23 7.68 -23 6.36 -23 5 C-21.46279297 4.60167969 -21.46279297 4.60167969 -19.89453125 4.1953125 C-18.53381011 3.83870972 -17.17313547 3.48192949 -15.8125 3.125 C-15.13896484 2.95097656 -14.46542969 2.77695313 -13.77148438 2.59765625 C-10.82026894 1.82026292 -8.00915525 1.00390726 -5.19921875 -0.1953125 C-3 -1 -3 -1 0 0 Z " fill="#012F6D" transform="translate(1005,190)"/>
<path d="M0 0 C-0.00333092 0.92295113 -0.00333092 0.92295113 -0.00672913 1.86454773 C-0.02886348 8.27224141 -0.04394069 14.67992421 -0.05493164 21.08764648 C-0.0599584 23.47860149 -0.06678075 25.86955343 -0.07543945 28.26049805 C-0.08757747 31.69841266 -0.09324492 35.13628661 -0.09765625 38.57421875 C-0.10281754 39.64210129 -0.10797882 40.70998383 -0.11329651 41.81022644 C-0.11337204 42.81088638 -0.11344757 43.81154633 -0.11352539 44.8425293 C-0.11685631 46.15824165 -0.11685631 46.15824165 -0.12025452 47.50053406 C0.00422191 50.08775147 0.42888096 52.47678996 1 55 C3.64 55.66 6.28 56.32 9 57 C9 58.65 9 60.3 9 62 C-1.23 62 -11.46 62 -22 62 C-22 60.35 -22 58.7 -22 57 C-21.43410156 56.89042969 -20.86820313 56.78085938 -20.28515625 56.66796875 C-19.55167969 56.50941406 -18.81820312 56.35085937 -18.0625 56.1875 C-17.33160156 56.03667969 -16.60070312 55.88585937 -15.84765625 55.73046875 C-15.23792969 55.48941406 -14.62820313 55.24835938 -14 55 C-12.7421851 51.22655531 -12.83763121 47.68556287 -12.83203125 43.75390625 C-12.82870285 42.94638412 -12.82537445 42.138862 -12.82194519 41.30686951 C-12.81688487 39.59968637 -12.81453659 37.89249336 -12.81469727 36.18530273 C-12.81251118 33.57584315 -12.79434738 30.96680665 -12.77539062 28.35742188 C-12.77245643 26.69791811 -12.77047181 25.03841234 -12.76953125 23.37890625 C-12.75875298 22.20999596 -12.75875298 22.20999596 -12.74775696 21.01747131 C-12.68209424 15.64898691 -12.68209424 15.64898691 -15 11 C-18.56206661 10.18129815 -18.56206661 10.18129815 -22 10 C-22 8.35 -22 6.7 -22 5 C-20.96359375 4.73445313 -19.9271875 4.46890625 -18.859375 4.1953125 C-17.48952244 3.83877553 -16.11973412 3.4819917 -14.75 3.125 C-13.72712891 2.86396484 -13.72712891 2.86396484 -12.68359375 2.59765625 C-9.88082843 1.86295078 -7.2806781 1.14606717 -4.703125 -0.1953125 C-3 -1 -3 -1 0 0 Z " fill="#012F6D" transform="translate(675,65)"/>
<path d="M0 0 C2 1.625 2 1.625 3 4 C2.88081199 7.39685818 2.58128695 9.94000615 0.9375 12.9375 C-2.26063137 14.69131398 -5.45325707 14.6502362 -9 14 C-11.90460477 11.73077752 -11.97856495 10.15004537 -12.5 6.5 C-12 3 -12 3 -9.9375 0.5 C-6.08739354 -1.46601181 -4.10799908 -1.21718491 0 0 Z " fill="#012F6D" transform="translate(1002,159)"/>
<path d="M0 0 C2.4375 1.625 2.4375 1.625 4 4 C4.48891657 7.35257076 4.35810604 9.26389315 2.875 12.3125 C0.26343795 14.66290584 -1.51074078 14.93021482 -5 15 C-9.56521739 12.86956522 -9.56521739 12.86956522 -11 10 C-11.38503376 6.45768939 -11.41935959 4.63742658 -9.4375 1.625 C-6.06489221 -0.62340519 -3.97487617 -0.56783945 0 0 Z " fill="#012F6D" transform="translate(671,34)"/>
<path d="M0 0 C2.77577672 1.61174132 2.95299519 2.83005953 3.8125 5.9375 C4.01028636 9.16801051 3.92199114 10.43734514 2 13 C-0.56265486 14.92199114 -1.83198949 15.01028636 -5.0625 14.8125 C-9.49877351 13.58544563 -9.49877351 13.58544563 -11 11 C-11.53468062 7.44288862 -11.62733051 4.25466102 -10 1 C-6.74533898 -0.62733051 -3.55711138 -0.53468062 0 0 Z " fill="#012F6D" transform="translate(938,34)"/>
</svg>
